<?xml version="1.0" standalone="no"?>
<!DOCTYPE svg PUBLIC "-//W3C//DTD SVG 20010904//EN"
 "http://www.w3.org/TR/2001/REC-SVG-20010904/DTD/svg10.dtd">
<svg version="1.0" xmlns="http://www.w3.org/2000/svg"
 width="172.000000pt" height="172.000000pt" viewBox="0 0 172.000000 172.000000"
 preserveAspectRatio="xMidYMid meet">

<g transform="translate(0.000000,172.000000) scale(0.100000,-0.100000)"
fill="#000000" stroke="none">
<path d="M1100 1077 c0 -354 -3 -646 -6 -650 -4 -3 -20 1 -36 9 -39 20 -141
20 -210 0 -71 -20 -152 -81 -203 -151 l-39 -55 -88 0 c-116 0 -125 -18 -11
-22 81 -3 88 -5 86 -23 -6 -59 35 -133 89 -161 38 -20 147 -20 212 0 69 21
149 78 193 136 l37 50 89 0 c56 0 86 4 82 10 -3 5 -41 10 -83 10 l-77 0 3 745
c2 742 2 745 -18 745 -20 0 -20 -4 -20 -643z"/>
</g>
</svg>
