<?xml version="1.0" standalone="no"?>
<!DOCTYPE svg PUBLIC "-//W3C//DTD SVG 20010904//EN"
 "http://www.w3.org/TR/2001/REC-SVG-20010904/DTD/svg10.dtd">
<svg version="1.0" xmlns="http://www.w3.org/2000/svg"
 width="172.000000pt" height="172.000000pt" viewBox="0 0 172.000000 172.000000"
 preserveAspectRatio="xMidYMid meet">

<g transform="translate(0.000000,172.000000) scale(0.100000,-0.100000)"
fill="#000000" stroke="none">
<path d="M835 1692 c-74 -26 -144 -69 -195 -123 l-46 -48 -85 -3 c-105 -4
-111 -22 -9 -26 l75 -3 -3 -744 c-2 -663 -1 -745 13 -745 13 0 15 74 15 660 0
363 4 660 8 660 4 0 25 -9 47 -20 115 -59 354 18 447 144 l33 45 80 3 c45 2
80 7 80 13 0 6 -33 11 -72 13 l-73 3 0 49 c0 56 -32 104 -87 126 -45 19 -167
17 -228 -4z"/>
</g>
</svg>
