<?xml version="1.0" standalone="no"?>
<!DOCTYPE svg PUBLIC "-//W3C//DTD SVG 20010904//EN"
 "http://www.w3.org/TR/2001/REC-SVG-20010904/DTD/svg10.dtd">
<svg version="1.0" xmlns="http://www.w3.org/2000/svg"
 width="172.000000pt" height="172.000000pt" viewBox="0 0 172.000000 172.000000"
 preserveAspectRatio="xMidYMid meet">

<g transform="translate(0.000000,172.000000) scale(0.100000,-0.100000)"
fill="#000000" stroke="none">
<path d="M873 1705 c-128 -36 -244 -121 -283 -208 -19 -40 -20 -75 -20 -769 0
-641 2 -728 15 -728 13 0 15 80 15 660 0 363 2 660 4 660 2 0 25 -10 51 -21
40 -18 62 -21 130 -17 229 12 430 219 348 359 -37 62 -160 92 -260 64z"/>
</g>
</svg>
