<svg id="svg" version="1.1" xmlns="http://www.w3.org/2000/svg" xmlns:xlink="http://www.w3.org/1999/xlink" width="400" height="400" viewBox="0, 0, 400,400"><g id="svgg"><path id="path0" d="M196.400 0.600 C 196.400 1.076,195.826 1.200,193.633 1.200 C 190.225 1.200,189.600 1.424,189.600 2.643 C 189.600 3.535,189.452 3.600,187.432 3.600 C 185.354 3.600,185.253 3.650,185.003 4.784 C 184.744 5.966,184.737 5.969,181.472 6.084 C 178.455 6.191,178.190 6.268,178.076 7.074 C 177.991 7.669,177.577 8.029,176.776 8.205 C 175.870 8.404,175.600 8.686,175.600 9.432 C 175.600 10.329,175.451 10.400,173.565 10.400 C 171.672 10.400,171.499 10.483,171.078 11.600 C 170.687 12.635,170.422 12.800,169.145 12.800 C 167.054 12.800,166.400 13.144,166.400 14.243 C 166.400 15.040,166.199 15.200,165.200 15.200 C 164.133 15.200,164.000 15.333,164.000 16.400 C 164.000 17.584,163.972 17.600,161.850 17.600 C 159.781 17.600,159.691 17.645,159.460 18.800 C 159.269 19.753,159.012 20.000,158.210 20.000 C 157.407 20.000,157.200 20.199,157.200 20.973 C 157.200 21.738,156.964 21.974,156.100 22.073 C 155.243 22.172,154.973 22.438,154.876 23.276 C 154.780 24.107,154.507 24.380,153.676 24.476 C 152.844 24.572,152.572 24.844,152.476 25.676 C 152.380 26.507,152.107 26.780,151.276 26.876 C 150.444 26.972,150.172 27.244,150.076 28.076 C 149.980 28.907,149.707 29.180,148.876 29.276 C 148.038 29.373,147.772 29.643,147.673 30.500 C 147.574 31.361,147.337 31.600,146.581 31.600 C 145.890 31.600,145.545 31.878,145.370 32.577 C 145.221 33.172,144.787 33.602,144.262 33.677 C 143.663 33.762,143.362 34.128,143.276 34.876 C 143.180 35.707,142.907 35.980,142.076 36.076 C 141.238 36.173,140.972 36.443,140.873 37.300 C 140.790 38.028,140.513 38.400,140.053 38.400 C 138.900 38.400,138.400 39.262,138.400 41.253 C 138.400 43.022,138.327 43.155,137.300 43.273 C 136.274 43.391,136.192 43.541,136.079 45.500 C 135.982 47.186,135.820 47.600,135.259 47.600 C 134.100 47.600,133.600 48.459,133.600 50.452 C 133.600 52.110,133.488 52.360,132.700 52.472 C 131.842 52.594,131.795 52.792,131.686 56.728 L 131.571 60.856 132.684 60.728 C 133.946 60.583,134.272 59.676,134.353 56.090 C 134.394 54.259,134.525 53.933,135.350 53.619 C 136.139 53.319,136.348 52.875,136.582 51.007 C 136.813 49.155,137.028 48.694,137.792 48.403 C 138.476 48.143,138.795 47.615,139.000 46.400 C 139.203 45.197,139.525 44.657,140.190 44.404 C 140.692 44.213,141.290 43.518,141.519 42.860 C 141.749 42.201,142.311 41.462,142.768 41.217 C 143.226 40.972,143.600 40.431,143.600 40.015 C 143.600 39.599,144.026 38.923,144.546 38.514 C 145.066 38.105,145.617 37.377,145.769 36.897 C 145.999 36.174,152.358 29.578,155.697 26.600 C 157.814 24.712,160.632 22.800,161.299 22.800 C 161.701 22.800,162.189 22.355,162.403 21.793 C 162.613 21.239,163.243 20.612,163.803 20.399 C 164.363 20.186,164.915 19.765,165.031 19.463 C 165.147 19.161,165.997 18.681,166.921 18.396 C 167.844 18.111,168.882 17.565,169.228 17.184 C 169.573 16.802,170.575 16.123,171.454 15.674 C 172.334 15.226,173.273 14.594,173.541 14.271 C 173.809 13.948,174.634 13.570,175.374 13.431 C 176.114 13.293,177.148 12.841,177.673 12.428 C 178.199 12.015,179.381 11.474,180.301 11.227 C 181.221 10.979,182.114 10.538,182.287 10.247 C 182.788 9.399,184.234 8.800,185.776 8.800 C 186.796 8.800,187.450 8.518,188.061 7.816 C 188.640 7.150,189.512 6.750,190.758 6.580 C 191.771 6.442,193.109 5.968,193.732 5.529 C 194.395 5.060,196.277 4.500,198.279 4.176 C 200.466 3.822,201.866 3.389,202.171 2.972 C 202.528 2.484,203.544 2.272,206.224 2.127 C 210.337 1.903,212.400 1.383,212.400 0.569 C 212.400 0.096,211.051 0.000,204.400 0.000 C 197.556 0.000,196.400 0.087,196.400 0.600 M234.000 0.569 C 234.000 1.276,236.022 1.914,238.400 1.958 C 240.927 2.005,242.448 2.385,243.544 3.244 C 244.063 3.651,245.354 4.099,246.413 4.239 C 247.680 4.408,248.604 4.800,249.114 5.388 C 249.572 5.914,250.587 6.392,251.586 6.551 C 252.786 6.743,253.340 7.048,253.483 7.594 C 253.595 8.023,254.280 8.562,255.023 8.808 C 255.759 9.051,256.461 9.562,256.583 9.945 C 256.704 10.327,257.429 10.867,258.193 11.143 C 259.044 11.451,260.078 12.335,260.859 13.423 C 261.561 14.400,262.294 15.200,262.489 15.200 C 262.683 15.200,263.034 15.753,263.270 16.429 C 263.505 17.104,264.108 17.813,264.608 18.003 C 265.325 18.276,265.576 18.774,265.793 20.351 C 266.019 21.994,266.224 22.375,266.934 22.477 L 267.800 22.600 267.800 35.000 L 267.800 47.400 266.911 47.790 C 266.044 48.170,265.149 51.283,265.738 51.871 C 266.122 52.256,265.219 53.600,264.576 53.600 C 263.876 53.600,263.200 55.172,263.200 56.798 C 263.200 57.682,262.994 57.974,262.300 58.072 C 261.675 58.161,261.262 58.627,260.948 59.600 C 260.700 60.370,260.219 61.056,259.879 61.123 C 259.540 61.191,259.073 61.790,258.841 62.453 C 258.610 63.117,257.921 64.163,257.310 64.777 C 255.275 66.826,254.113 68.192,253.655 69.073 C 253.405 69.553,252.868 70.051,252.461 70.181 C 252.054 70.310,251.518 70.862,251.269 71.408 C 251.021 71.953,250.539 72.400,250.199 72.400 C 249.859 72.400,249.408 72.853,249.197 73.407 C 248.987 73.961,248.361 74.587,247.807 74.797 C 247.253 75.008,246.800 75.448,246.800 75.776 C 246.800 76.104,246.395 76.583,245.900 76.840 C 245.405 77.098,244.550 77.720,244.000 78.223 C 241.050 80.922,239.637 82.000,239.048 82.000 C 238.687 82.000,238.079 82.373,237.696 82.829 C 237.313 83.284,236.415 83.905,235.700 84.208 C 234.985 84.511,234.400 84.958,234.400 85.202 C 234.400 85.446,233.614 85.993,232.653 86.418 C 231.692 86.843,230.688 87.454,230.421 87.775 C 230.154 88.096,229.275 88.569,228.468 88.826 C 227.661 89.083,226.730 89.606,226.400 89.988 C 226.070 90.371,224.938 90.915,223.884 91.198 C 222.830 91.481,221.797 92.031,221.589 92.420 C 221.371 92.828,220.511 93.246,219.563 93.406 C 218.657 93.559,217.554 94.046,217.111 94.489 C 216.669 94.931,215.220 95.546,213.890 95.856 C 212.561 96.167,211.277 96.676,211.037 96.989 C 210.797 97.301,209.381 97.835,207.892 98.175 C 206.402 98.514,204.768 99.065,204.260 99.398 C 203.752 99.731,201.730 100.243,199.768 100.536 C 197.806 100.829,195.660 101.345,195.000 101.682 C 193.053 102.677,182.199 103.353,173.400 103.028 C 161.091 102.573,160.792 102.542,159.981 101.672 C 159.523 101.181,158.244 100.716,156.527 100.418 C 155.027 100.158,153.440 99.620,153.000 99.222 C 152.560 98.824,151.547 98.290,150.748 98.034 C 149.950 97.779,148.977 97.217,148.586 96.785 C 148.196 96.353,147.544 96.000,147.139 96.000 C 146.734 96.000,145.734 95.370,144.918 94.600 C 143.299 93.073,142.563 92.900,141.376 93.768 C 140.514 94.398,140.586 79.500,140.300 316.900 L 140.200 400.000 141.700 400.000 L 143.200 400.000 143.200 249.373 L 143.200 98.747 144.284 98.873 C 145.060 98.964,145.434 99.284,145.600 100.000 C 145.764 100.708,146.141 101.036,146.891 101.124 C 147.628 101.211,147.989 101.515,148.075 102.124 C 148.177 102.837,148.576 103.064,150.224 103.344 C 151.711 103.596,152.348 103.914,152.624 104.544 C 152.970 105.331,153.346 105.409,157.277 105.513 C 161.296 105.620,161.571 105.680,161.831 106.513 C 162.287 107.973,162.441 107.988,178.020 107.994 C 193.623 108.000,194.000 107.961,194.000 106.333 C 194.000 105.706,194.507 105.613,198.500 105.513 C 202.823 105.404,203.005 105.365,203.128 104.500 C 203.245 103.674,203.466 103.600,205.802 103.600 C 208.946 103.600,210.400 103.097,210.400 102.010 C 210.400 101.288,210.657 101.200,212.774 101.200 C 215.730 101.200,217.200 100.679,217.200 99.630 C 217.200 98.949,217.517 98.823,219.500 98.720 C 221.677 98.606,221.807 98.541,221.927 97.500 C 222.047 96.450,222.152 96.400,224.237 96.400 C 226.334 96.400,226.429 96.354,226.656 95.220 C 226.872 94.141,227.050 94.030,228.746 93.920 C 230.241 93.823,230.677 93.621,231.000 92.873 C 231.230 92.340,231.868 91.850,232.500 91.723 C 233.329 91.555,233.600 91.266,233.600 90.550 C 233.600 89.706,233.781 89.600,235.226 89.600 C 237.246 89.600,238.400 89.013,238.400 87.986 C 238.400 87.456,238.672 87.200,239.235 87.200 C 239.795 87.200,240.218 86.805,240.522 86.000 C 240.901 84.996,241.194 84.800,242.314 84.800 C 244.049 84.800,245.200 84.167,245.200 83.212 C 245.200 82.681,245.531 82.415,246.300 82.327 C 247.157 82.228,247.427 81.962,247.524 81.124 C 247.620 80.293,247.893 80.020,248.724 79.924 C 249.487 79.836,249.837 79.539,249.928 78.901 C 250.008 78.339,250.421 77.909,251.031 77.756 C 251.599 77.614,252.104 77.126,252.238 76.590 C 252.372 76.058,252.877 75.567,253.435 75.427 C 254.122 75.255,254.400 74.906,254.400 74.219 C 254.400 73.463,254.639 73.226,255.500 73.127 C 256.364 73.027,256.627 72.764,256.727 71.900 C 256.810 71.172,257.087 70.800,257.547 70.800 C 258.670 70.800,259.200 69.952,259.200 68.152 C 259.200 66.601,259.298 66.442,260.400 66.200 C 261.330 65.996,261.600 65.719,261.600 64.968 C 261.600 64.396,261.834 64.000,262.171 64.000 C 263.264 64.000,264.000 62.781,264.000 60.971 C 264.000 59.372,264.092 59.200,264.953 59.200 C 266.018 59.200,266.386 58.358,266.395 55.900 C 266.399 54.568,266.512 54.400,267.400 54.400 C 268.345 54.400,268.400 54.279,268.400 52.208 C 268.400 50.201,268.485 49.994,269.403 49.763 C 270.821 49.408,270.836 49.233,270.712 35.000 L 270.600 22.200 269.500 22.073 C 268.450 21.953,268.400 21.847,268.400 19.773 C 268.400 17.722,268.344 17.600,267.400 17.600 C 266.484 17.600,266.400 17.451,266.400 15.833 C 266.400 13.462,266.091 12.800,264.984 12.800 C 264.266 12.800,264.024 12.549,263.927 11.700 C 263.827 10.836,263.564 10.573,262.700 10.473 C 261.833 10.374,261.600 10.139,261.600 9.363 C 261.600 8.591,261.343 8.329,260.400 8.140 C 259.471 7.954,259.200 7.686,259.200 6.950 C 259.200 6.166,258.995 6.000,258.027 6.000 C 257.044 6.000,256.833 5.821,256.727 4.900 C 256.609 3.881,256.452 3.791,254.581 3.682 C 252.757 3.575,252.518 3.449,252.116 2.382 C 251.702 1.286,251.521 1.200,249.635 1.200 C 248.093 1.200,247.600 1.055,247.600 0.600 C 247.600 0.090,246.578 0.000,240.800 0.000 C 235.187 0.000,234.000 0.099,234.000 0.569 M130.400 61.892 C 130.070 62.017,129.668 62.318,129.506 62.560 C 129.344 62.802,129.209 138.825,129.206 231.500 L 129.200 400.000 130.400 400.000 L 131.600 400.000 131.600 230.800 C 131.600 137.740,131.465 61.614,131.300 61.632 C 131.135 61.649,130.730 61.766,130.400 61.892 " stroke="none" fill="#747474" fill-rule="evenodd"></path><path id="path1" d="M216.400 0.541 C 216.400 1.132,213.235 1.829,207.800 2.436 C 206.040 2.632,203.790 3.136,202.800 3.554 C 201.810 3.973,200.012 4.447,198.804 4.608 C 197.596 4.770,195.990 5.233,195.234 5.638 C 194.479 6.043,192.857 6.587,191.630 6.848 C 190.404 7.109,189.220 7.535,189.000 7.796 C 188.319 8.602,186.906 9.200,185.680 9.200 C 185.035 9.200,184.071 9.544,183.537 9.963 C 183.004 10.383,180.954 11.477,178.984 12.395 C 177.013 13.312,175.130 14.227,174.800 14.428 C 174.470 14.629,173.358 15.241,172.328 15.789 C 171.299 16.337,170.334 16.983,170.184 17.225 C 170.034 17.468,169.167 18.016,168.256 18.444 C 165.562 19.710,163.705 20.959,162.795 22.115 C 162.326 22.712,161.758 23.200,161.534 23.200 C 160.041 23.200,147.477 34.726,146.139 37.323 C 145.777 38.025,145.148 38.835,144.740 39.123 C 144.333 39.410,144.000 39.836,144.000 40.070 C 144.000 40.303,143.505 41.102,142.900 41.845 C 142.295 42.587,141.292 43.821,140.671 44.586 C 140.050 45.350,139.370 46.601,139.159 47.365 C 138.946 48.136,138.444 48.859,138.031 48.990 C 137.234 49.243,136.814 50.315,136.805 52.119 C 136.802 52.794,136.403 53.606,135.800 54.165 C 135.079 54.833,134.815 55.470,134.854 56.446 C 134.898 57.540,134.944 57.608,135.090 56.800 C 135.189 56.250,135.612 55.431,136.030 54.979 C 136.449 54.528,136.976 53.183,137.202 51.992 C 137.428 50.800,137.893 49.668,138.236 49.476 C 138.579 49.284,139.209 48.378,139.636 47.463 C 140.063 46.549,140.851 45.170,141.387 44.400 C 142.337 43.035,142.719 42.549,145.199 39.547 C 145.860 38.748,146.404 37.938,146.409 37.747 C 146.438 36.669,157.195 26.531,160.700 24.278 C 162.075 23.394,163.200 22.526,163.200 22.348 C 163.200 21.962,167.292 19.297,168.713 18.757 C 169.262 18.548,170.248 17.926,170.904 17.374 C 171.560 16.822,172.660 16.111,173.348 15.793 C 174.037 15.476,174.870 15.041,175.200 14.828 C 175.530 14.614,177.420 13.679,179.400 12.750 C 181.380 11.821,183.450 10.758,184.000 10.389 C 184.550 10.019,185.678 9.612,186.506 9.483 C 187.335 9.354,188.458 8.898,189.003 8.469 C 189.547 8.041,190.670 7.565,191.497 7.413 C 192.323 7.260,194.080 6.725,195.400 6.224 C 198.187 5.165,205.359 3.395,209.400 2.769 C 210.940 2.531,213.131 2.187,214.269 2.006 C 217.133 1.551,229.242 1.579,232.400 2.048 C 233.830 2.260,236.170 2.596,237.600 2.794 C 239.030 2.992,241.010 3.511,242.000 3.946 C 242.990 4.381,244.520 4.868,245.400 5.028 C 246.280 5.188,247.627 5.742,248.393 6.259 C 249.159 6.777,250.079 7.200,250.438 7.200 C 250.797 7.200,251.761 7.733,252.580 8.384 C 253.400 9.035,254.414 9.678,254.835 9.811 C 255.256 9.945,255.600 10.217,255.600 10.417 C 255.600 10.616,256.095 11.039,256.700 11.357 C 257.910 11.992,260.047 14.030,261.600 16.028 C 262.150 16.735,263.098 17.845,263.706 18.494 C 264.315 19.143,264.979 20.413,265.182 21.317 C 265.385 22.220,265.910 23.239,266.348 23.580 C 266.787 23.921,267.221 24.740,267.313 25.400 C 267.468 26.511,267.485 26.492,267.540 25.146 C 267.587 24.018,267.387 23.552,266.649 23.069 C 265.973 22.626,265.618 21.911,265.421 20.600 C 265.224 19.288,264.917 18.669,264.359 18.463 C 263.927 18.303,263.264 17.708,262.887 17.141 C 260.930 14.201,260.169 13.292,258.909 12.389 C 258.150 11.845,256.936 10.905,256.212 10.300 C 255.487 9.695,254.762 9.200,254.600 9.200 C 254.438 9.200,253.691 8.660,252.939 8.000 C 252.187 7.340,251.162 6.800,250.662 6.800 C 250.161 6.800,249.335 6.413,248.827 5.939 C 248.319 5.466,247.079 4.925,246.072 4.737 C 245.065 4.548,243.422 3.993,242.421 3.503 C 241.419 3.012,239.430 2.496,238.000 2.356 C 233.596 1.926,230.400 1.169,230.400 0.557 C 230.400 0.205,229.959 0.000,229.200 0.000 C 228.400 0.000,228.000 0.200,228.000 0.600 C 228.000 1.000,227.600 1.200,226.800 1.200 C 226.000 1.200,225.600 1.000,225.600 0.600 C 225.600 0.133,225.067 0.000,223.200 0.000 C 221.333 0.000,220.800 0.133,220.800 0.600 C 220.800 0.973,220.422 1.200,219.800 1.200 C 219.178 1.200,218.800 0.973,218.800 0.600 C 218.800 0.200,218.400 0.000,217.600 0.000 C 216.858 0.000,216.400 0.207,216.400 0.541 M267.200 44.674 C 267.200 45.045,266.833 45.739,266.384 46.217 C 265.935 46.694,265.489 47.786,265.391 48.643 C 265.216 50.178,265.219 50.182,265.562 48.871 C 265.754 48.141,266.291 47.189,266.755 46.756 C 267.485 46.076,267.971 44.000,267.400 44.000 C 267.290 44.000,267.200 44.303,267.200 44.674 M264.800 51.380 C 264.800 51.699,264.520 52.117,264.178 52.308 C 263.836 52.500,263.286 53.439,262.957 54.396 C 262.627 55.352,261.917 56.659,261.379 57.298 C 260.840 57.938,260.400 58.649,260.400 58.878 C 260.400 59.107,259.856 59.948,259.192 60.747 C 257.334 62.982,256.152 64.436,254.596 66.400 C 252.508 69.036,245.587 75.950,243.185 77.800 C 242.042 78.680,240.723 79.715,240.254 80.099 C 238.483 81.549,236.544 82.824,234.912 83.612 C 233.984 84.060,233.084 84.661,232.912 84.949 C 232.741 85.236,232.240 85.675,231.800 85.923 C 231.360 86.172,231.200 86.381,231.445 86.388 C 231.690 86.395,232.528 85.905,233.307 85.300 C 234.742 84.186,236.315 83.169,238.563 81.903 C 239.243 81.520,239.980 80.967,240.200 80.674 C 240.420 80.381,240.891 79.975,241.246 79.771 C 244.427 77.944,255.289 67.010,256.561 64.354 C 256.760 63.939,257.162 63.600,257.456 63.600 C 257.749 63.600,258.252 62.970,258.574 62.200 C 258.896 61.430,259.358 60.800,259.600 60.800 C 259.842 60.800,260.301 60.176,260.620 59.414 C 260.938 58.652,261.551 57.840,261.982 57.610 C 262.441 57.364,262.877 56.570,263.035 55.695 C 263.391 53.726,263.896 52.800,264.614 52.800 C 264.972 52.800,265.200 52.412,265.200 51.800 C 265.200 51.250,265.110 50.800,265.000 50.800 C 264.890 50.800,264.800 51.061,264.800 51.380 M134.449 59.000 C 134.338 61.229,133.976 61.905,132.765 62.147 L 131.600 62.380 131.700 228.490 L 131.799 394.600 131.900 228.908 L 132.001 63.215 132.997 62.965 C 134.115 62.684,135.011 60.476,134.693 58.782 C 134.529 57.905,134.503 57.928,134.449 59.000 M229.837 87.159 C 229.460 87.576,228.385 88.110,227.449 88.346 C 226.513 88.582,225.419 89.137,225.019 89.579 C 224.618 90.022,223.697 90.496,222.971 90.632 C 222.246 90.768,221.342 91.222,220.963 91.641 C 220.583 92.060,219.537 92.599,218.636 92.837 C 217.736 93.076,216.634 93.610,216.187 94.024 C 215.740 94.437,214.205 95.021,212.776 95.320 C 211.347 95.620,209.732 96.157,209.187 96.514 C 208.642 96.871,207.117 97.422,205.798 97.739 C 203.004 98.409,199.387 99.978,200.606 99.991 C 201.049 99.996,202.039 99.667,202.806 99.259 C 203.573 98.851,205.190 98.289,206.400 98.010 C 207.610 97.731,209.140 97.183,209.800 96.792 C 210.460 96.401,212.041 95.869,213.313 95.609 C 214.586 95.350,215.936 94.809,216.313 94.408 C 216.691 94.006,217.736 93.481,218.636 93.241 C 219.537 93.000,220.583 92.460,220.963 92.041 C 221.342 91.622,222.265 91.164,223.014 91.024 C 223.764 90.883,224.877 90.359,225.488 89.860 C 226.100 89.360,227.320 88.743,228.200 88.488 C 229.080 88.233,230.027 87.659,230.303 87.212 C 230.935 86.193,230.732 86.170,229.837 87.159 M140.039 93.260 C 139.723 94.166,139.600 136.983,139.600 245.771 C 139.600 382.018,139.538 397.110,138.977 397.911 C 138.071 399.205,133.618 399.218,132.331 397.931 C 131.644 397.244,131.518 397.209,131.731 397.763 C 131.879 398.149,132.000 398.811,132.000 399.233 C 132.000 399.931,132.316 400.000,135.503 400.000 L 139.005 400.000 139.503 398.406 C 139.895 397.149,140.010 365.021,140.047 246.106 C 140.073 163.218,140.208 94.873,140.347 94.229 C 140.848 91.906,144.022 92.279,145.923 94.884 C 146.210 95.278,146.771 95.600,147.169 95.600 C 147.567 95.600,148.321 95.934,148.846 96.341 C 149.982 97.224,155.766 100.000,156.469 100.000 C 156.740 100.000,156.070 99.563,154.981 99.030 C 153.891 98.496,152.460 97.795,151.800 97.472 C 149.376 96.287,146.495 94.567,144.810 93.300 C 142.443 91.522,140.650 91.506,140.039 93.260 M158.499 100.383 C 159.323 100.543,160.313 100.956,160.699 101.301 C 161.641 102.143,164.789 102.398,176.000 102.543 L 185.400 102.664 176.400 102.409 C 167.762 102.163,164.721 101.804,160.800 100.565 C 159.810 100.252,158.550 100.018,158.000 100.044 C 157.282 100.078,157.423 100.174,158.499 100.383 M194.000 100.589 C 192.790 100.868,191.503 101.222,191.140 101.375 C 190.777 101.529,189.607 101.816,188.540 102.014 L 186.600 102.372 188.894 102.183 C 190.156 102.079,192.018 101.713,193.031 101.369 C 194.044 101.025,195.981 100.599,197.336 100.422 C 199.536 100.136,199.607 100.100,198.000 100.092 C 197.010 100.086,195.210 100.310,194.000 100.589 " stroke="none" fill="#3c3c3c" fill-rule="evenodd"></path><path id="path2" d="M214.000 1.994 C 212.708 2.190,213.288 2.257,216.054 2.233 C 218.173 2.215,219.703 2.068,219.454 1.906 C 218.927 1.565,216.574 1.603,214.000 1.994 M221.700 1.891 C 222.525 1.978,223.875 1.978,224.700 1.891 C 225.525 1.805,224.850 1.734,223.200 1.734 C 221.550 1.734,220.875 1.805,221.700 1.891 M226.846 1.963 C 226.505 2.179,227.042 2.241,228.246 2.124 C 230.955 1.860,231.333 1.668,229.200 1.638 C 228.210 1.624,227.151 1.770,226.846 1.963 M231.905 2.283 C 232.402 2.379,233.122 2.375,233.505 2.275 C 233.887 2.175,233.480 2.096,232.600 2.101 C 231.720 2.105,231.407 2.187,231.905 2.283 M208.500 3.076 C 208.885 3.176,209.515 3.176,209.900 3.076 C 210.285 2.975,209.970 2.893,209.200 2.893 C 208.430 2.893,208.115 2.975,208.500 3.076 M237.928 3.214 C 239.098 3.427,240.391 3.781,240.801 4.001 C 241.212 4.220,241.784 4.393,242.074 4.384 C 243.524 4.340,240.017 3.114,238.062 2.981 L 235.800 2.827 237.928 3.214 M204.200 3.807 L 202.600 4.352 204.200 4.114 C 205.080 3.983,206.250 3.739,206.800 3.572 L 207.800 3.269 206.800 3.265 C 206.250 3.263,205.080 3.507,204.200 3.807 M195.800 6.022 C 194.920 6.438,194.405 6.784,194.656 6.790 C 194.907 6.795,195.897 6.444,196.856 6.009 C 197.815 5.574,198.330 5.228,198.000 5.241 C 197.670 5.254,196.680 5.605,195.800 6.022 M247.432 6.198 C 249.926 7.464,250.174 7.464,248.314 6.200 C 247.505 5.650,246.532 5.200,246.153 5.200 C 245.774 5.200,246.350 5.649,247.432 6.198 M250.792 7.646 C 251.337 7.864,252.066 8.258,252.411 8.521 C 252.757 8.784,252.615 8.595,252.097 8.100 C 251.579 7.605,250.850 7.211,250.478 7.225 C 250.027 7.242,250.132 7.383,250.792 7.646 M189.144 8.430 C 188.625 8.887,188.426 9.146,188.701 9.006 C 190.993 7.841,191.337 7.605,190.744 7.602 C 190.384 7.601,189.664 7.974,189.144 8.430 M183.611 10.620 C 182.847 11.159,182.418 11.600,182.657 11.600 C 182.896 11.600,183.527 11.258,184.059 10.839 C 184.591 10.421,185.471 9.995,186.013 9.894 L 187.000 9.709 186.000 9.674 C 185.450 9.655,184.375 10.080,183.611 10.620 M255.200 10.395 C 255.200 10.612,255.875 11.235,256.700 11.780 C 257.525 12.324,258.740 13.158,259.400 13.633 C 260.083 14.125,259.911 13.879,259.000 13.063 C 258.120 12.275,257.265 11.623,257.100 11.615 C 256.935 11.607,256.440 11.240,256.000 10.800 C 255.560 10.360,255.200 10.178,255.200 10.395 M178.800 13.058 C 177.370 13.828,176.650 14.330,177.200 14.174 C 178.325 13.856,182.421 11.593,181.800 11.633 C 181.580 11.647,180.230 12.288,178.800 13.058 M174.992 14.813 C 174.852 15.040,173.959 15.591,173.007 16.039 C 172.056 16.486,170.945 17.233,170.539 17.700 C 169.941 18.386,170.066 18.352,171.200 17.520 C 171.970 16.955,172.960 16.379,173.400 16.240 C 174.450 15.908,176.337 14.420,175.724 14.409 C 175.462 14.404,175.132 14.586,174.992 14.813 M262.012 16.678 C 262.005 16.940,262.405 17.579,262.900 18.097 C 263.395 18.615,263.600 18.760,263.356 18.420 C 263.112 18.079,262.712 17.440,262.468 17.000 C 262.224 16.560,262.019 16.415,262.012 16.678 M165.468 20.536 C 164.405 21.239,163.356 22.171,163.137 22.607 C 162.782 23.312,162.819 23.305,163.469 22.543 C 163.871 22.072,164.753 21.409,165.429 21.070 C 166.105 20.730,166.892 20.171,167.178 19.826 C 167.880 18.981,167.712 19.051,165.468 20.536 M265.200 22.661 C 265.200 22.784,265.650 23.419,266.200 24.073 C 266.750 24.727,267.200 25.043,267.200 24.777 C 267.200 24.510,266.750 23.875,266.200 23.365 C 265.650 22.855,265.200 22.539,265.200 22.661 M160.401 24.433 C 157.293 26.539,146.404 36.756,146.398 37.572 C 146.398 37.697,148.963 35.270,152.098 32.177 C 155.234 29.084,158.835 25.872,160.100 25.038 C 161.365 24.204,162.400 23.450,162.400 23.361 C 162.400 23.097,162.276 23.163,160.401 24.433 M267.371 35.200 C 267.371 40.150,267.428 42.175,267.499 39.700 C 267.569 37.225,267.569 33.175,267.499 30.700 C 267.428 28.225,267.371 30.250,267.371 35.200 M138.474 49.120 C 137.964 49.648,137.618 50.152,137.705 50.239 C 137.792 50.326,138.285 49.948,138.800 49.400 C 139.315 48.852,139.661 48.348,139.568 48.281 C 139.476 48.214,138.983 48.592,138.474 49.120 M263.646 52.233 C 263.181 52.824,262.805 53.509,262.812 53.754 C 262.819 53.999,263.031 53.840,263.283 53.400 C 263.535 52.960,264.025 52.390,264.370 52.133 C 264.716 51.876,264.885 51.551,264.745 51.412 C 264.605 51.272,264.111 51.642,263.646 52.233 M135.862 55.131 C 135.133 55.937,134.972 56.588,135.598 56.201 C 136.015 55.943,136.939 54.400,136.676 54.400 C 136.592 54.400,136.226 54.729,135.862 55.131 M258.414 61.100 C 257.950 61.705,257.131 62.740,256.593 63.400 C 253.401 67.318,252.800 68.101,252.802 68.338 C 252.805 68.677,254.538 66.621,255.868 64.700 C 256.439 63.875,257.030 63.200,257.182 63.200 C 257.334 63.200,257.929 62.480,258.505 61.600 C 259.709 59.762,259.657 59.480,258.414 61.100 M134.271 61.659 C 134.102 62.333,133.646 62.802,133.003 62.963 C 132.395 63.116,132.012 63.488,132.032 63.908 C 132.051 64.325,132.143 64.402,132.265 64.100 C 132.376 63.825,132.718 63.600,133.024 63.600 C 133.719 63.600,134.935 61.804,134.705 61.116 C 134.612 60.836,134.416 61.080,134.271 61.659 M251.170 69.900 L 250.200 71.000 251.400 70.000 C 252.060 69.450,252.675 68.955,252.767 68.900 C 252.858 68.845,252.755 68.800,252.536 68.800 C 252.318 68.800,251.703 69.295,251.170 69.900 M248.801 72.198 C 248.286 72.748,247.939 73.248,248.032 73.311 C 248.124 73.374,248.684 72.924,249.274 72.312 C 249.865 71.701,250.212 71.200,250.044 71.200 C 249.877 71.200,249.317 71.649,248.801 72.198 M246.401 74.598 C 245.886 75.148,245.539 75.664,245.632 75.746 C 245.724 75.828,246.219 75.378,246.730 74.747 C 247.876 73.335,247.674 73.244,246.401 74.598 M243.514 77.125 C 242.791 77.745,241.615 78.657,240.900 79.153 C 240.185 79.649,239.600 80.257,239.600 80.504 C 239.600 80.756,239.819 80.690,240.100 80.354 C 240.375 80.024,241.299 79.225,242.154 78.577 C 244.649 76.686,245.419 76.018,245.114 76.009 C 244.957 76.004,244.237 76.506,243.514 77.125 M237.033 81.963 C 236.653 82.383,235.809 82.948,235.158 83.217 C 234.507 83.487,234.055 83.788,234.153 83.886 C 234.251 83.984,234.752 83.843,235.266 83.573 C 236.512 82.917,238.557 81.200,238.093 81.200 C 237.890 81.200,237.413 81.544,237.033 81.963 M229.478 87.013 C 228.006 88.307,228.533 88.296,230.073 87.000 C 230.727 86.450,231.113 86.006,230.931 86.013 C 230.749 86.020,230.095 86.470,229.478 87.013 M220.354 91.540 C 219.829 91.947,219.130 92.383,218.800 92.509 C 218.311 92.695,218.325 92.743,218.878 92.768 C 219.250 92.786,220.060 92.356,220.678 91.813 C 221.988 90.660,221.748 90.458,220.354 91.540 M140.223 92.089 C 139.880 92.578,139.614 93.253,139.632 93.589 C 139.649 93.925,139.844 93.705,140.065 93.100 C 140.545 91.785,142.403 91.582,144.011 92.668 L 145.000 93.336 144.030 92.268 C 142.812 90.926,141.094 90.845,140.223 92.089 M149.746 96.370 C 150.817 97.069,151.751 97.583,151.822 97.512 C 152.007 97.327,149.552 95.696,148.600 95.371 C 148.160 95.221,148.676 95.670,149.746 96.370 M208.600 96.427 C 207.940 96.850,207.580 97.196,207.800 97.195 C 208.020 97.195,208.740 96.837,209.400 96.400 C 210.060 95.963,210.420 95.617,210.200 95.632 C 209.980 95.647,209.260 96.004,208.600 96.427 M202.700 98.229 C 202.095 98.557,201.600 98.916,201.600 99.027 C 201.600 99.138,202.005 99.011,202.500 98.745 C 202.995 98.479,203.940 98.131,204.600 97.971 C 205.685 97.710,205.704 97.679,204.800 97.657 C 204.250 97.643,203.305 97.901,202.700 98.229 M154.600 98.800 C 155.260 99.237,155.980 99.595,156.200 99.595 C 156.420 99.595,156.060 99.237,155.400 98.800 C 154.740 98.363,154.020 98.005,153.800 98.005 C 153.580 98.005,153.940 98.363,154.600 98.800 M193.000 100.392 C 192.340 100.563,191.350 100.910,190.800 101.163 L 189.800 101.623 190.800 101.379 C 191.350 101.244,192.790 100.898,194.000 100.608 C 195.210 100.319,195.750 100.082,195.200 100.082 C 194.650 100.082,193.660 100.222,193.000 100.392 M161.222 100.786 C 161.540 100.955,162.790 101.193,164.000 101.317 C 165.222 101.442,165.845 101.402,165.400 101.228 C 164.321 100.805,160.491 100.400,161.222 100.786 M172.723 102.299 C 175.431 102.368,179.751 102.368,182.323 102.299 C 184.895 102.229,182.680 102.172,177.400 102.173 C 172.120 102.173,170.015 102.230,172.723 102.299 M131.650 395.700 C 131.556 398.529,137.104 400.383,138.832 398.100 C 139.282 397.504,139.278 397.475,138.801 397.900 C 138.155 398.476,133.690 398.571,132.831 398.028 C 132.519 397.830,132.136 396.888,131.981 395.934 L 131.700 394.200 131.650 395.700 " stroke="none" fill="#343434" fill-rule="evenodd"></path><path id="path3" d="M212.400 0.569 C 212.400 1.383,210.337 1.903,206.224 2.127 C 203.544 2.272,202.528 2.484,202.171 2.972 C 201.866 3.389,200.466 3.822,198.279 4.176 C 196.277 4.500,194.395 5.060,193.732 5.529 C 193.109 5.968,191.771 6.442,190.758 6.580 C 189.512 6.750,188.640 7.150,188.061 7.816 C 187.450 8.518,186.796 8.800,185.776 8.800 C 184.234 8.800,182.788 9.399,182.287 10.247 C 182.114 10.538,181.221 10.979,180.301 11.227 C 179.381 11.474,178.199 12.015,177.673 12.428 C 177.148 12.841,176.114 13.293,175.374 13.431 C 174.634 13.570,173.809 13.948,173.541 14.271 C 173.273 14.594,172.334 15.226,171.454 15.674 C 170.575 16.123,169.573 16.802,169.228 17.184 C 168.882 17.565,167.844 18.111,166.921 18.396 C 165.997 18.681,165.147 19.161,165.031 19.463 C 164.915 19.765,164.363 20.186,163.803 20.399 C 163.243 20.612,162.613 21.239,162.403 21.793 C 162.189 22.355,161.701 22.800,161.299 22.800 C 160.632 22.800,157.814 24.712,155.697 26.600 C 152.358 29.578,145.999 36.174,145.769 36.897 C 145.617 37.377,145.066 38.105,144.546 38.514 C 144.026 38.923,143.600 39.599,143.600 40.015 C 143.600 40.431,143.226 40.972,142.768 41.217 C 142.311 41.462,141.749 42.201,141.519 42.860 C 141.290 43.518,140.692 44.213,140.190 44.404 C 139.525 44.657,139.203 45.197,139.000 46.400 C 138.791 47.634,138.479 48.142,137.761 48.415 C 137.109 48.663,136.815 49.073,136.846 49.690 C 136.879 50.337,136.945 50.403,137.072 49.919 C 137.171 49.544,137.594 49.129,138.013 48.996 C 138.445 48.859,138.941 48.151,139.160 47.362 C 139.371 46.596,140.052 45.347,140.672 44.587 C 141.292 43.827,142.295 42.594,142.900 41.848 C 143.505 41.101,144.000 40.300,144.000 40.068 C 144.000 39.835,144.333 39.410,144.740 39.123 C 145.148 38.835,145.777 38.025,146.139 37.323 C 147.477 34.726,160.041 23.200,161.534 23.200 C 161.758 23.200,162.326 22.712,162.795 22.115 C 163.705 20.959,165.562 19.710,168.256 18.444 C 169.167 18.016,170.034 17.468,170.184 17.225 C 170.334 16.983,171.299 16.337,172.328 15.789 C 173.358 15.241,174.470 14.629,174.800 14.428 C 175.130 14.227,177.013 13.312,178.984 12.395 C 180.954 11.477,183.004 10.383,183.537 9.963 C 184.071 9.544,185.035 9.200,185.680 9.200 C 186.906 9.200,188.319 8.602,189.000 7.796 C 189.220 7.535,190.404 7.109,191.630 6.848 C 192.857 6.587,194.479 6.043,195.234 5.638 C 195.990 5.233,197.596 4.770,198.804 4.608 C 200.012 4.447,201.810 3.973,202.800 3.554 C 203.790 3.136,206.040 2.632,207.800 2.436 C 213.235 1.829,216.400 1.132,216.400 0.541 C 216.400 0.158,215.814 0.000,214.400 0.000 C 212.937 0.000,212.400 0.153,212.400 0.569 M218.800 0.600 C 218.800 0.973,219.178 1.200,219.800 1.200 C 220.422 1.200,220.800 0.973,220.800 0.600 C 220.800 0.227,220.422 0.000,219.800 0.000 C 219.178 0.000,218.800 0.227,218.800 0.600 M225.600 0.600 C 225.600 1.000,226.000 1.200,226.800 1.200 C 227.600 1.200,228.000 1.000,228.000 0.600 C 228.000 0.200,227.600 0.000,226.800 0.000 C 226.000 0.000,225.600 0.200,225.600 0.600 M230.400 0.557 C 230.400 1.169,233.596 1.926,238.000 2.356 C 239.430 2.496,241.419 3.012,242.421 3.503 C 243.422 3.993,245.065 4.548,246.072 4.737 C 247.079 4.925,248.319 5.466,248.827 5.939 C 249.335 6.413,250.161 6.800,250.662 6.800 C 251.162 6.800,252.187 7.340,252.939 8.000 C 253.691 8.660,254.438 9.200,254.600 9.200 C 254.762 9.200,255.487 9.695,256.212 10.300 C 256.936 10.905,258.150 11.845,258.909 12.389 C 260.169 13.292,260.930 14.201,262.887 17.141 C 263.264 17.708,263.927 18.303,264.359 18.463 C 264.917 18.669,265.224 19.288,265.421 20.600 C 265.618 21.911,265.973 22.626,266.649 23.069 L 267.600 23.692 267.600 34.788 L 267.600 45.883 266.600 46.962 C 266.050 47.556,265.625 48.437,265.654 48.921 C 265.705 49.737,265.721 49.742,265.871 48.988 C 265.960 48.541,266.430 48.001,266.916 47.788 L 267.800 47.400 267.800 35.000 L 267.800 22.600 266.934 22.477 C 266.224 22.375,266.019 21.994,265.793 20.351 C 265.576 18.774,265.325 18.276,264.608 18.003 C 264.108 17.813,263.505 17.104,263.270 16.429 C 263.034 15.753,262.683 15.200,262.489 15.200 C 262.294 15.200,261.561 14.400,260.859 13.423 C 260.078 12.335,259.044 11.451,258.193 11.143 C 257.429 10.867,256.704 10.327,256.583 9.945 C 256.461 9.562,255.759 9.051,255.023 8.808 C 254.280 8.562,253.595 8.023,253.483 7.594 C 253.340 7.048,252.786 6.743,251.586 6.551 C 250.587 6.392,249.572 5.914,249.114 5.388 C 248.604 4.800,247.680 4.408,246.413 4.239 C 245.354 4.099,244.063 3.651,243.544 3.244 C 242.448 2.385,240.927 2.005,238.400 1.958 C 236.022 1.914,234.000 1.276,234.000 0.569 C 234.000 0.161,233.490 0.000,232.200 0.000 C 230.928 0.000,230.400 0.163,230.400 0.557 M265.247 51.300 C 265.215 52.329,265.016 52.800,264.614 52.800 C 263.989 52.800,263.183 54.003,263.225 54.874 C 263.239 55.163,263.413 54.995,263.612 54.500 C 263.811 54.005,264.244 53.600,264.573 53.600 C 265.436 53.600,265.903 52.390,265.576 51.000 C 265.299 49.820,265.294 49.825,265.247 51.300 M136.400 52.010 C 136.400 52.932,136.162 53.310,135.400 53.600 C 134.494 53.944,134.406 54.179,134.467 56.090 C 134.527 57.951,134.554 58.013,134.696 56.619 C 134.800 55.607,135.208 54.714,135.829 54.138 C 136.675 53.354,137.265 50.800,136.600 50.800 C 136.490 50.800,136.400 51.344,136.400 52.010 M262.800 56.554 C 262.800 56.859,262.350 57.403,261.800 57.763 C 261.250 58.124,260.805 58.639,260.812 58.909 C 260.819 59.179,261.008 59.085,261.232 58.700 C 261.456 58.315,261.991 58.000,262.420 58.000 C 262.985 58.000,263.200 57.725,263.200 57.000 C 263.200 56.450,263.110 56.000,263.000 56.000 C 262.890 56.000,262.800 56.249,262.800 56.554 M133.951 59.400 C 133.829 60.366,133.586 60.625,132.700 60.727 C 131.901 60.819,131.600 61.076,131.600 61.669 C 131.600 62.249,131.783 62.415,132.233 62.243 C 132.581 62.109,133.113 62.000,133.415 62.000 C 133.990 62.000,134.623 59.632,134.291 58.721 C 134.187 58.435,134.034 58.740,133.951 59.400 M259.719 60.567 C 259.234 61.053,258.653 61.934,258.428 62.525 C 258.204 63.116,257.773 63.600,257.471 63.600 C 257.169 63.600,256.760 63.939,256.561 64.354 C 255.288 67.011,244.410 77.961,241.246 79.769 C 240.891 79.972,240.365 80.467,240.077 80.869 C 239.790 81.271,239.320 81.600,239.032 81.600 C 238.745 81.600,237.872 82.095,237.093 82.700 C 235.684 83.794,234.147 84.790,231.894 86.070 C 231.246 86.439,230.382 87.098,229.975 87.535 C 229.568 87.971,228.642 88.458,227.918 88.616 C 227.193 88.774,226.100 89.323,225.488 89.836 C 224.877 90.349,223.764 90.883,223.014 91.024 C 222.265 91.164,221.342 91.622,220.963 92.041 C 220.583 92.460,219.537 92.996,218.636 93.231 C 217.736 93.465,216.804 93.910,216.564 94.218 C 216.324 94.526,215.694 94.952,215.164 95.164 C 214.271 95.521,214.262 95.551,215.042 95.575 C 215.504 95.589,216.350 95.167,216.920 94.639 C 217.491 94.110,218.689 93.554,219.584 93.403 C 220.515 93.245,221.372 92.825,221.589 92.420 C 221.797 92.031,222.830 91.481,223.884 91.198 C 224.938 90.915,226.070 90.371,226.400 89.988 C 226.730 89.606,227.661 89.083,228.468 88.826 C 229.275 88.569,230.154 88.096,230.421 87.775 C 230.688 87.454,231.692 86.843,232.653 86.418 C 233.614 85.993,234.400 85.446,234.400 85.202 C 234.400 84.958,234.985 84.511,235.700 84.208 C 236.415 83.905,237.313 83.284,237.696 82.829 C 238.079 82.373,238.687 82.000,239.048 82.000 C 239.637 82.000,241.050 80.922,244.000 78.223 C 244.550 77.720,245.405 77.098,245.900 76.840 C 246.395 76.583,246.800 76.104,246.800 75.776 C 246.800 75.448,247.253 75.008,247.807 74.797 C 248.361 74.587,248.987 73.961,249.197 73.407 C 249.408 72.853,249.859 72.400,250.199 72.400 C 250.539 72.400,251.021 71.953,251.269 71.408 C 251.518 70.862,252.054 70.310,252.461 70.181 C 252.868 70.051,253.405 69.553,253.655 69.073 C 254.113 68.192,255.275 66.826,257.310 64.777 C 257.921 64.163,258.607 63.124,258.836 62.470 C 259.064 61.816,259.599 61.189,260.025 61.078 C 260.451 60.966,260.800 60.588,260.800 60.237 C 260.800 59.470,260.820 59.464,259.719 60.567 M141.601 92.758 C 140.039 93.192,140.097 87.412,140.047 246.172 C 140.011 361.757,139.889 397.251,139.523 398.262 C 139.063 399.534,139.283 400.450,139.900 399.833 C 140.065 399.668,140.290 330.864,140.400 246.934 C 140.597 96.459,140.611 94.328,141.376 93.768 C 142.563 92.900,143.299 93.073,144.918 94.600 C 145.734 95.370,146.734 96.000,147.139 96.000 C 147.544 96.000,148.196 96.353,148.586 96.785 C 148.977 97.217,149.950 97.779,150.748 98.034 C 151.547 98.290,152.562 98.827,153.004 99.229 C 153.447 99.631,154.617 100.059,155.604 100.179 C 156.922 100.341,157.125 100.307,156.367 100.052 C 154.585 99.454,149.842 97.113,148.846 96.340 C 148.321 95.933,147.567 95.600,147.169 95.600 C 146.771 95.600,146.210 95.278,145.923 94.884 C 145.421 94.196,143.025 92.357,142.738 92.440 C 142.662 92.462,142.150 92.605,141.601 92.758 M211.565 95.982 C 210.996 96.155,210.096 96.569,209.565 96.903 C 209.034 97.237,207.610 97.738,206.400 98.016 C 205.190 98.295,203.570 98.847,202.800 99.242 C 202.030 99.638,199.922 100.144,198.115 100.368 C 196.309 100.591,193.949 101.062,192.872 101.414 C 191.794 101.767,189.672 102.210,188.156 102.400 C 185.846 102.689,186.080 102.710,189.600 102.526 C 192.211 102.390,194.254 102.073,195.000 101.688 C 195.660 101.348,197.806 100.829,199.768 100.536 C 201.730 100.243,203.752 99.731,204.260 99.398 C 204.768 99.065,206.402 98.514,207.892 98.175 C 209.381 97.835,210.789 97.311,211.021 97.011 C 211.252 96.710,212.062 96.286,212.821 96.068 C 213.579 95.850,213.840 95.671,213.400 95.670 C 212.960 95.670,212.134 95.810,211.565 95.982 M158.538 100.810 C 159.164 100.998,159.884 101.430,160.138 101.770 C 160.483 102.233,161.564 102.428,164.400 102.539 C 166.528 102.622,167.672 102.557,167.000 102.391 C 166.340 102.228,164.838 102.073,163.663 102.047 C 162.186 102.015,161.212 101.753,160.509 101.200 C 159.950 100.760,159.021 100.415,158.446 100.434 L 157.400 100.469 158.538 100.810 M172.500 103.098 C 174.865 103.169,178.735 103.169,181.100 103.098 C 183.465 103.028,181.530 102.970,176.800 102.970 C 172.070 102.970,170.135 103.028,172.500 103.098 " stroke="none" fill="#5c5c5c" fill-rule="evenodd"></path><path id="path4" d="M214.600 2.260 C 210.631 2.736,197.778 5.493,196.444 6.156 C 195.870 6.441,194.320 6.972,193.000 7.335 C 191.680 7.698,189.714 8.447,188.632 8.998 C 187.550 9.549,186.256 10.000,185.756 10.000 C 185.256 10.000,184.746 10.165,184.621 10.366 C 184.497 10.567,182.641 11.567,180.498 12.589 C 178.354 13.611,176.240 14.650,175.800 14.899 C 175.360 15.148,174.190 15.784,173.200 16.312 C 172.210 16.840,171.123 17.520,170.785 17.821 C 170.447 18.123,169.547 18.654,168.785 19.002 C 167.151 19.749,164.922 21.226,163.800 22.307 C 163.360 22.731,161.830 23.864,160.400 24.824 C 157.599 26.706,147.367 36.741,145.400 39.535 C 144.740 40.472,143.705 41.776,143.100 42.433 C 142.495 43.090,142.000 43.788,142.000 43.983 C 142.000 44.179,141.575 44.847,141.055 45.469 C 140.535 46.091,139.975 47.050,139.810 47.600 C 139.645 48.150,139.099 49.050,138.596 49.600 C 138.094 50.150,137.558 51.363,137.407 52.295 C 137.255 53.227,136.724 54.590,136.225 55.325 C 135.650 56.173,135.215 57.597,135.033 59.230 C 134.734 61.916,133.964 63.600,133.034 63.600 C 132.732 63.600,132.376 63.885,132.243 64.233 C 131.604 65.898,131.987 397.130,132.629 397.771 C 133.683 398.826,138.186 398.641,138.977 397.511 C 139.538 396.710,139.600 381.563,139.600 244.800 C 139.600 108.037,139.662 92.890,140.223 92.089 C 141.227 90.656,142.622 90.967,145.200 93.200 C 146.470 94.300,147.772 95.200,148.094 95.200 C 148.416 95.200,149.472 95.737,150.440 96.393 C 151.408 97.049,152.377 97.589,152.594 97.593 C 152.811 97.597,153.891 98.036,154.994 98.569 C 156.097 99.101,158.440 99.828,160.200 100.183 C 161.960 100.538,164.210 101.047,165.200 101.314 C 168.355 102.166,189.003 101.979,190.995 101.081 C 191.872 100.685,194.270 100.203,196.322 100.008 C 199.056 99.750,200.581 99.380,202.020 98.628 C 203.101 98.062,204.498 97.600,205.125 97.600 C 205.752 97.600,207.150 97.151,208.232 96.603 C 209.314 96.054,211.181 95.424,212.380 95.201 C 213.580 94.979,215.200 94.366,215.980 93.839 C 216.761 93.311,217.824 92.754,218.341 92.600 C 218.859 92.446,219.919 91.888,220.697 91.360 C 221.475 90.832,222.422 90.400,222.802 90.400 C 223.182 90.400,223.955 90.036,224.520 89.591 C 225.085 89.147,226.320 88.511,227.263 88.178 C 228.206 87.845,229.342 87.253,229.789 86.863 C 230.235 86.472,231.095 85.942,231.700 85.685 C 232.305 85.428,232.800 85.036,232.800 84.815 C 232.800 84.594,233.666 83.974,234.725 83.438 C 235.784 82.901,236.886 82.178,237.174 81.831 C 237.462 81.484,237.919 81.200,238.190 81.200 C 238.460 81.200,239.221 80.705,239.880 80.100 C 240.539 79.495,241.916 78.370,242.940 77.600 C 245.171 75.921,252.206 68.921,254.195 66.400 C 257.253 62.525,257.837 61.817,258.875 60.722 C 259.466 60.099,260.063 59.230,260.202 58.792 C 260.342 58.354,260.870 57.502,261.376 56.898 C 261.882 56.294,262.425 55.211,262.582 54.490 C 262.739 53.770,263.286 52.684,263.796 52.077 C 264.308 51.469,264.851 50.136,265.005 49.107 C 265.159 48.081,265.716 46.656,266.242 45.943 C 267.190 44.657,267.200 44.548,267.200 34.953 L 267.200 25.261 266.216 24.092 C 265.674 23.448,265.073 22.217,264.879 21.355 C 264.686 20.494,263.943 19.162,263.229 18.395 C 262.515 17.628,261.586 16.634,261.165 16.186 C 260.744 15.738,260.400 15.177,260.400 14.939 C 260.400 14.702,259.545 13.867,258.500 13.085 C 257.455 12.302,256.150 11.290,255.600 10.834 C 254.062 9.560,251.047 7.615,250.597 7.607 C 250.375 7.603,249.385 7.173,248.397 6.652 C 247.409 6.130,246.240 5.604,245.800 5.482 C 245.360 5.360,243.470 4.819,241.600 4.280 C 235.549 2.535,233.322 2.264,224.400 2.189 C 219.670 2.149,215.260 2.181,214.600 2.260 M131.314 59.800 C 131.317 60.900,131.395 61.303,131.487 60.695 C 131.579 60.086,131.577 59.186,131.482 58.695 C 131.387 58.203,131.311 58.700,131.314 59.800 " stroke="none" fill="#242424" fill-rule="evenodd"></path></g></svg>