<svg id="svg" version="1.1" xmlns="http://www.w3.org/2000/svg" xmlns:xlink="http://www.w3.org/1999/xlink" width="400" height="400" viewBox="0, 0, 400,400"><g id="svgg"><path id="path0" d="M249.991 147.300 C 249.983 286.927,249.946 294.556,249.291 293.747 C 248.213 292.416,247.051 292.000,244.413 292.000 C 242.229 292.000,241.850 291.874,240.800 290.800 L 239.627 289.600 223.473 289.600 C 206.769 289.600,205.183 289.736,204.377 291.242 C 204.027 291.897,203.498 292.000,200.471 292.000 C 197.170 292.000,196.891 292.068,195.585 293.184 C 194.416 294.183,193.851 294.370,191.958 294.384 C 190.177 294.397,189.510 294.592,188.707 295.336 C 188.092 295.906,186.859 296.413,185.549 296.636 C 183.942 296.908,183.305 297.216,183.023 297.859 C 182.740 298.502,182.160 298.782,180.707 298.975 C 179.169 299.179,178.676 299.435,178.320 300.216 C 178.038 300.834,177.539 301.200,176.978 301.200 C 176.487 301.200,175.519 301.729,174.827 302.375 C 174.135 303.021,173.081 303.606,172.485 303.675 C 171.637 303.773,171.372 304.040,171.273 304.900 C 171.167 305.822,170.957 306.000,169.970 306.000 C 169.208 306.000,168.350 306.423,167.537 307.200 C 166.846 307.860,165.944 308.400,165.532 308.400 C 165.119 308.400,164.576 308.853,164.323 309.410 C 164.070 309.965,163.442 310.525,162.928 310.654 C 162.386 310.790,161.892 311.290,161.753 311.844 C 161.603 312.442,161.222 312.800,160.736 312.800 C 160.235 312.800,159.812 313.219,159.548 313.976 C 159.292 314.712,158.813 315.199,158.269 315.276 C 157.657 315.363,157.363 315.726,157.273 316.500 C 157.204 317.105,156.889 317.623,156.573 317.650 C 156.258 317.678,155.793 317.723,155.540 317.750 C 155.287 317.778,155.013 318.239,154.931 318.776 C 154.748 319.972,154.772 319.948,153.576 320.132 C 153.039 320.214,152.595 320.533,152.589 320.841 C 152.572 321.765,151.999 322.400,151.184 322.400 C 150.692 322.400,150.322 322.770,150.157 323.429 C 150.015 323.995,149.471 324.621,148.949 324.819 C 148.376 325.037,148.000 325.505,148.000 326.000 C 148.000 326.497,147.622 326.963,147.039 327.185 C 146.449 327.410,145.898 328.097,145.610 328.969 C 145.353 329.749,144.705 330.731,144.171 331.151 C 143.587 331.611,143.200 332.330,143.200 332.958 C 143.200 333.695,142.989 334.000,142.480 334.000 C 141.458 334.000,140.800 334.788,140.800 336.014 C 140.800 336.681,140.359 337.461,139.600 338.137 C 138.709 338.931,138.400 339.558,138.400 340.574 C 138.400 341.580,138.117 342.164,137.332 342.782 C 136.457 343.471,136.230 344.032,136.076 345.893 C 135.944 347.482,135.658 348.349,135.124 348.781 C 132.877 350.602,132.930 373.070,135.186 374.799 C 135.708 375.199,135.992 375.935,136.034 377.000 C 136.133 379.513,136.360 380.000,137.427 380.000 C 138.323 380.000,138.400 380.153,138.400 381.920 C 138.400 383.950,138.896 384.800,140.080 384.800 C 140.714 384.800,140.909 385.319,140.775 386.651 C 140.761 386.788,141.162 387.107,141.667 387.358 C 142.171 387.610,142.790 388.229,143.042 388.733 C 143.752 390.159,145.674 391.999,146.161 391.722 C 146.403 391.584,146.463 391.622,146.296 391.806 C 145.778 392.377,147.663 394.000,148.843 394.000 C 149.750 394.000,149.969 394.196,150.073 395.100 C 150.172 395.959,150.437 396.227,151.281 396.325 C 151.939 396.401,152.461 396.761,152.615 397.248 C 152.916 398.194,154.325 398.800,156.226 398.800 C 157.181 398.800,157.600 398.983,157.600 399.400 C 157.600 399.899,158.378 400.000,162.200 400.000 C 167.240 400.000,168.932 399.125,164.900 398.603 C 160.121 397.985,160.000 397.950,160.000 397.189 C 160.000 396.617,159.586 396.387,158.180 396.176 C 156.466 395.919,155.200 395.166,155.200 394.403 C 155.200 394.216,154.654 393.944,153.986 393.797 C 153.319 393.650,152.493 393.103,152.151 392.581 C 151.808 392.059,151.179 391.520,150.753 391.385 C 149.856 391.100,146.000 387.354,146.000 386.768 C 146.000 386.551,145.370 385.743,144.600 384.973 C 143.830 384.203,143.200 383.232,143.200 382.814 C 143.200 382.332,142.872 382.009,142.300 381.928 C 141.561 381.823,141.335 381.437,141.038 379.768 C 140.777 378.302,140.443 377.634,139.838 377.368 C 139.178 377.078,138.948 376.514,138.754 374.708 C 138.575 373.048,138.270 372.220,137.647 371.708 C 135.725 370.126,135.665 353.957,137.576 352.360 C 137.997 352.007,138.445 351.062,138.571 350.260 C 138.697 349.457,138.894 348.190,139.010 347.444 C 139.144 346.576,139.485 346.019,139.958 345.895 C 140.463 345.763,140.855 345.039,141.200 343.600 C 141.536 342.200,141.942 341.436,142.415 341.312 C 142.845 341.200,143.226 340.587,143.382 339.757 C 143.523 339.004,144.170 337.845,144.819 337.180 C 145.469 336.516,146.000 335.622,146.000 335.194 C 146.000 334.697,146.362 334.324,147.000 334.164 C 147.707 333.987,148.000 333.642,148.000 332.986 C 148.000 332.475,148.426 331.723,148.946 331.314 C 149.466 330.905,150.190 329.992,150.556 329.285 C 150.921 328.578,151.402 328.000,151.624 328.000 C 151.846 328.000,152.387 327.389,152.828 326.643 C 153.268 325.897,153.982 325.193,154.414 325.080 C 154.883 324.958,155.200 324.533,155.200 324.028 C 155.200 323.490,155.568 323.040,156.207 322.797 C 156.761 322.587,157.377 321.986,157.576 321.462 C 157.776 320.938,158.310 320.412,158.764 320.293 C 159.219 320.175,159.759 319.635,159.964 319.093 C 160.170 318.552,160.726 318.008,161.199 317.884 C 161.672 317.761,162.154 317.297,162.270 316.855 C 162.385 316.412,163.002 315.868,163.640 315.646 C 164.278 315.424,164.800 314.958,164.800 314.611 C 164.800 314.264,165.205 313.822,165.700 313.629 C 166.195 313.436,167.217 312.720,167.972 312.039 C 168.727 311.358,169.676 310.800,170.082 310.800 C 170.493 310.800,170.982 310.374,171.186 309.837 C 171.413 309.239,171.995 308.777,172.721 308.617 C 173.399 308.468,174.069 307.966,174.318 307.420 C 174.627 306.743,175.210 306.401,176.398 306.200 C 177.603 305.997,178.143 305.675,178.396 305.010 C 178.662 304.311,179.177 304.034,180.617 303.818 C 181.992 303.612,182.545 303.331,182.693 302.764 C 182.805 302.339,183.324 301.903,183.848 301.796 C 184.372 301.688,185.286 301.498,185.880 301.372 C 186.474 301.247,187.365 300.707,187.861 300.172 C 188.558 299.420,189.169 299.200,190.565 299.200 C 191.834 299.200,192.583 298.970,193.090 298.426 C 194.106 297.336,195.732 296.800,198.026 296.800 C 199.517 296.800,200.212 296.588,200.866 295.934 C 201.952 294.848,204.023 294.440,208.553 294.417 C 211.523 294.403,212.343 294.252,213.553 293.500 C 215.718 292.153,232.061 292.104,233.867 293.439 C 234.761 294.100,235.797 294.323,238.746 294.491 C 242.066 294.681,242.593 294.816,243.405 295.692 C 244.065 296.404,244.910 296.749,246.437 296.930 C 248.060 297.122,248.748 297.423,249.383 298.220 C 250.059 299.067,250.489 299.235,251.711 299.130 L 253.209 299.000 253.213 171.600 C 253.215 101.530,253.213 34.255,253.208 22.100 L 253.200 0.000 251.600 0.000 L 250.000 0.000 249.991 147.300 M265.901 170.968 L 265.800 341.936 264.877 342.918 C 264.219 343.619,263.845 344.690,263.574 346.650 C 263.300 348.634,262.961 349.593,262.360 350.094 C 261.880 350.493,261.436 351.456,261.315 352.357 C 261.187 353.312,260.653 354.420,259.952 355.188 C 259.319 355.882,258.800 356.893,258.800 357.435 C 258.800 358.103,258.495 358.536,257.851 358.781 C 257.329 358.979,256.793 359.574,256.660 360.102 C 256.528 360.630,255.951 361.567,255.380 362.184 C 254.808 362.801,254.171 363.750,253.965 364.292 C 253.759 364.834,253.248 365.367,252.829 365.477 C 252.410 365.586,251.957 366.115,251.823 366.652 C 251.688 367.189,251.146 367.792,250.619 367.993 C 250.077 368.199,249.605 368.750,249.531 369.262 C 249.448 369.838,249.042 370.251,248.415 370.398 C 247.797 370.543,247.343 370.997,247.198 371.615 C 247.057 372.219,246.637 372.648,246.114 372.724 C 245.589 372.800,245.104 373.300,244.852 374.024 C 244.588 374.781,244.165 375.200,243.664 375.200 C 243.177 375.200,242.797 375.559,242.646 376.160 C 242.497 376.754,241.946 377.280,241.202 377.539 C 240.540 377.770,240.000 378.246,240.000 378.600 C 240.000 378.953,239.478 379.424,238.840 379.646 C 238.202 379.868,237.590 380.397,237.479 380.820 C 237.368 381.244,236.776 381.781,236.163 382.014 C 235.550 382.247,234.812 382.775,234.523 383.188 C 234.234 383.601,233.377 384.144,232.618 384.394 C 231.859 384.645,231.129 385.194,230.995 385.616 C 230.847 386.081,230.132 386.549,229.176 386.806 C 228.309 387.040,227.600 387.465,227.600 387.751 C 227.600 388.336,225.947 389.200,224.827 389.200 C 224.423 389.200,223.805 389.638,223.454 390.174 C 222.995 390.874,222.297 391.226,220.979 391.424 C 219.549 391.638,219.062 391.910,218.781 392.650 C 218.489 393.417,218.129 393.601,216.910 393.605 C 214.644 393.614,213.744 393.966,213.257 395.034 C 212.879 395.864,212.541 396.000,210.859 396.000 C 207.846 396.000,206.400 396.391,206.400 397.207 C 206.400 398.187,205.617 398.400,202.017 398.400 C 198.171 398.400,196.400 398.731,196.400 399.450 C 196.400 399.891,197.545 400.000,202.200 400.000 C 207.089 400.000,208.000 399.906,208.000 399.400 C 208.000 398.873,211.227 398.459,212.941 398.766 C 213.801 398.921,214.761 398.283,214.875 397.481 C 214.986 396.701,215.307 396.574,217.675 396.370 C 220.368 396.138,221.600 395.568,221.600 394.551 C 221.600 394.174,222.110 394.000,223.218 394.000 C 224.409 394.000,225.099 393.737,225.832 393.004 C 226.380 392.456,227.262 391.899,227.793 391.766 C 228.324 391.633,229.042 391.091,229.388 390.562 C 229.796 389.939,230.403 389.598,231.109 389.594 C 232.512 389.586,233.400 389.014,233.401 388.117 C 233.401 387.666,233.790 387.333,234.470 387.204 C 235.057 387.092,235.925 386.505,236.398 385.900 C 236.901 385.257,237.648 384.800,238.196 384.800 C 239.732 384.800,240.400 384.370,240.400 383.384 C 240.400 382.670,240.652 382.424,241.484 382.327 C 242.260 382.236,242.634 381.916,242.800 381.200 C 242.966 380.484,243.340 380.164,244.116 380.073 C 244.945 379.977,245.200 379.730,245.200 379.023 C 245.200 378.317,245.483 378.043,246.400 377.860 C 247.333 377.673,247.600 377.407,247.600 376.660 C 247.600 375.913,247.867 375.647,248.800 375.460 C 249.753 375.269,250.000 375.012,250.000 374.210 C 250.000 373.397,250.197 373.200,251.010 373.200 C 251.808 373.200,252.069 372.953,252.256 372.022 C 252.416 371.219,252.763 370.805,253.346 370.722 C 253.936 370.638,254.238 370.268,254.324 369.524 C 254.420 368.693,254.693 368.420,255.524 368.324 C 256.357 368.228,256.628 367.956,256.725 367.119 C 256.801 366.461,257.161 365.939,257.648 365.785 C 258.520 365.508,259.200 364.102,259.200 362.574 C 259.200 362.038,259.425 361.579,259.700 361.554 C 259.975 361.528,260.470 361.483,260.800 361.454 C 261.130 361.424,261.424 361.130,261.454 360.800 C 261.483 360.470,261.528 359.971,261.554 359.690 C 261.579 359.410,262.050 359.009,262.600 358.800 C 263.226 358.562,263.623 358.080,263.661 357.510 C 263.694 357.009,263.764 356.420,263.815 356.200 C 263.866 355.980,263.928 355.485,263.954 355.100 C 263.979 354.715,264.248 354.400,264.551 354.400 C 265.750 354.400,266.280 352.648,266.384 348.343 C 266.393 347.982,266.850 347.574,267.400 347.436 L 268.400 347.185 268.400 341.582 C 268.400 336.061,268.414 335.975,269.345 335.621 C 269.865 335.423,270.405 334.963,270.545 334.598 C 270.685 334.233,270.800 258.799,270.800 166.967 L 270.800 0.000 268.401 0.000 L 266.003 0.000 265.901 170.968 " stroke="none" fill="#c1c1c1" fill-rule="evenodd"></path><path id="path1" d="M256.038 149.900 C 255.968 264.355,255.835 300.031,255.473 300.777 C 254.705 302.363,252.635 302.669,251.147 301.417 C 250.483 300.858,249.516 300.400,249.000 300.400 C 248.484 300.400,247.517 299.942,246.852 299.383 C 246.102 298.752,244.823 298.232,243.486 298.014 C 242.299 297.821,240.685 297.226,239.899 296.693 C 237.083 294.782,207.787 294.824,205.191 296.743 C 204.293 297.407,203.108 297.745,200.876 297.971 C 198.552 298.207,197.420 298.542,196.244 299.341 C 195.249 300.018,194.151 300.400,193.198 300.400 C 192.287 300.400,191.290 300.728,190.633 301.245 C 190.042 301.710,188.726 302.341,187.708 302.648 C 186.691 302.954,185.575 303.461,185.229 303.774 C 184.883 304.087,183.790 304.727,182.800 305.196 C 179.731 306.650,177.879 307.796,172.000 311.875 C 167.854 314.752,160.091 322.001,155.600 327.190 C 154.610 328.334,153.350 329.749,152.800 330.335 C 152.250 330.921,151.620 331.685,151.400 332.034 C 149.767 334.621,147.979 337.120,147.441 337.566 C 147.088 337.859,146.800 338.301,146.800 338.549 C 146.799 338.797,146.349 339.523,145.800 340.162 C 145.250 340.801,144.800 341.536,144.800 341.794 C 144.800 342.052,144.279 343.059,143.643 344.031 C 143.007 345.004,142.355 346.430,142.195 347.200 C 142.034 347.970,141.486 349.320,140.976 350.200 C 138.767 354.014,138.877 371.338,141.129 374.201 C 141.597 374.795,142.093 375.886,142.231 376.626 C 142.370 377.366,142.749 378.192,143.073 378.461 C 143.397 378.730,144.079 379.771,144.588 380.775 C 145.097 381.779,145.893 382.943,146.357 383.362 C 146.821 383.781,147.200 384.267,147.200 384.442 C 147.200 385.024,152.297 389.671,154.553 391.146 C 159.047 394.084,159.778 394.462,162.147 395.069 C 163.475 395.409,164.953 395.944,165.430 396.257 C 168.439 398.228,193.834 398.165,198.598 396.175 C 199.364 395.855,201.378 395.400,203.074 395.164 C 204.771 394.928,206.819 394.399,207.626 393.987 C 208.432 393.575,209.972 393.019,211.046 392.750 C 212.121 392.482,213.792 391.843,214.760 391.331 C 215.727 390.819,216.811 390.400,217.167 390.400 C 217.523 390.400,218.441 389.979,219.207 389.465 C 219.973 388.951,221.198 388.326,221.930 388.075 C 222.661 387.825,223.800 387.166,224.461 386.610 C 225.121 386.055,225.873 385.595,226.131 385.589 C 226.389 385.583,227.770 384.766,229.200 383.774 C 230.630 382.782,232.250 381.668,232.800 381.298 C 238.020 377.789,247.593 368.468,252.000 362.601 C 252.770 361.576,253.805 360.359,254.300 359.897 C 254.795 359.434,255.200 358.904,255.200 358.718 C 255.200 358.533,255.830 357.465,256.600 356.345 C 257.370 355.226,258.000 354.088,258.000 353.817 C 258.000 353.546,258.346 353.011,258.768 352.629 C 259.190 352.247,259.755 351.020,260.023 349.903 C 260.291 348.787,260.908 347.286,261.395 346.569 C 262.036 345.624,262.343 344.427,262.510 342.216 C 262.677 340.007,262.997 338.757,263.670 337.683 L 264.600 336.200 264.702 168.100 L 264.805 0.000 260.467 0.000 L 256.130 0.000 256.038 149.900 " stroke="none" fill="#040404" fill-rule="evenodd"></path><path id="path2" d="M253.218 149.500 L 253.217 299.000 251.715 299.130 C 250.489 299.236,250.059 299.068,249.383 298.220 C 248.748 297.423,248.060 297.122,246.437 296.930 C 244.910 296.749,244.065 296.404,243.405 295.692 C 242.593 294.816,242.066 294.681,238.746 294.491 C 235.797 294.323,234.761 294.100,233.867 293.439 C 232.061 292.104,215.718 292.153,213.553 293.500 C 212.343 294.252,211.523 294.403,208.553 294.417 C 204.023 294.440,201.952 294.848,200.866 295.934 C 200.212 296.588,199.517 296.800,198.026 296.800 C 195.732 296.800,194.106 297.336,193.090 298.426 C 192.583 298.970,191.834 299.200,190.565 299.200 C 189.169 299.200,188.558 299.420,187.861 300.172 C 187.365 300.707,186.474 301.247,185.880 301.372 C 185.286 301.498,184.372 301.688,183.848 301.796 C 183.324 301.903,182.805 302.339,182.693 302.764 C 182.545 303.331,181.992 303.612,180.617 303.818 C 179.177 304.034,178.662 304.311,178.396 305.010 C 178.143 305.675,177.603 305.997,176.398 306.200 C 175.210 306.401,174.627 306.743,174.318 307.420 C 174.069 307.966,173.399 308.468,172.721 308.617 C 171.995 308.777,171.413 309.239,171.186 309.837 C 170.982 310.374,170.493 310.800,170.082 310.800 C 169.676 310.800,168.727 311.358,167.972 312.039 C 167.217 312.720,166.195 313.436,165.700 313.629 C 165.205 313.822,164.800 314.264,164.800 314.611 C 164.800 314.958,164.278 315.424,163.640 315.646 C 163.002 315.868,162.385 316.412,162.270 316.855 C 162.154 317.297,161.672 317.761,161.199 317.884 C 160.726 318.008,160.170 318.552,159.964 319.093 C 159.759 319.635,159.219 320.175,158.764 320.293 C 158.310 320.412,157.776 320.938,157.576 321.462 C 157.377 321.986,156.761 322.587,156.207 322.797 C 155.568 323.040,155.200 323.490,155.200 324.028 C 155.200 324.533,154.883 324.958,154.414 325.080 C 153.982 325.193,153.268 325.897,152.828 326.643 C 152.387 327.389,151.846 328.000,151.624 328.000 C 151.402 328.000,150.921 328.578,150.556 329.285 C 150.190 329.992,149.466 330.905,148.946 331.314 C 148.426 331.723,148.000 332.475,148.000 332.986 C 148.000 333.642,147.707 333.987,147.000 334.164 C 146.362 334.324,146.000 334.697,146.000 335.194 C 146.000 335.622,145.469 336.516,144.819 337.180 C 144.170 337.845,143.523 339.004,143.382 339.757 C 143.226 340.587,142.845 341.200,142.415 341.312 C 141.942 341.436,141.536 342.200,141.200 343.600 C 140.855 345.039,140.463 345.763,139.958 345.895 C 139.485 346.019,139.144 346.576,139.010 347.444 C 138.894 348.190,138.697 349.457,138.571 350.260 C 138.445 351.062,137.997 352.007,137.576 352.360 C 135.665 353.957,135.725 370.126,137.647 371.708 C 138.270 372.220,138.575 373.048,138.754 374.708 C 138.948 376.514,139.178 377.078,139.838 377.368 C 140.443 377.634,140.777 378.302,141.038 379.768 C 141.335 381.437,141.561 381.823,142.300 381.928 C 142.872 382.009,143.200 382.332,143.200 382.814 C 143.200 383.232,143.830 384.203,144.600 384.973 C 145.370 385.743,146.000 386.551,146.000 386.768 C 146.000 387.354,149.856 391.100,150.753 391.385 C 151.179 391.520,151.808 392.059,152.151 392.581 C 152.493 393.103,153.319 393.650,153.986 393.797 C 154.654 393.944,155.200 394.216,155.200 394.403 C 155.200 395.166,156.466 395.919,158.180 396.176 C 159.597 396.389,160.000 396.615,160.000 397.200 C 160.000 397.795,160.395 398.002,161.900 398.197 C 166.384 398.777,166.800 398.882,166.800 399.435 C 166.800 399.827,167.289 400.000,168.400 400.000 C 171.381 400.000,170.321 398.973,166.572 398.229 C 164.687 397.854,162.320 397.110,161.313 396.574 C 160.305 396.038,159.193 395.597,158.840 395.593 C 158.488 395.589,157.408 395.049,156.440 394.393 C 155.472 393.737,154.457 393.200,154.186 393.200 C 153.914 393.200,153.397 392.750,153.037 392.200 C 152.676 391.650,152.187 391.200,151.949 391.200 C 151.386 391.200,146.000 385.814,146.000 385.251 C 146.000 385.013,145.567 384.535,145.038 384.188 C 144.509 383.842,143.964 383.112,143.827 382.567 C 143.691 382.022,143.142 381.197,142.609 380.733 C 142.076 380.269,141.524 379.330,141.382 378.645 C 141.241 377.960,140.710 376.770,140.203 376.000 C 139.696 375.230,139.082 373.411,138.839 371.958 C 138.596 370.505,138.083 368.705,137.698 367.958 C 136.734 366.084,136.715 357.981,137.670 356.200 C 138.024 355.540,138.601 353.470,138.953 351.600 C 139.304 349.730,139.846 348.013,140.158 347.784 C 140.469 347.555,140.939 346.570,141.201 345.595 C 141.464 344.620,142.096 343.326,142.606 342.720 C 143.115 342.115,143.654 341.063,143.804 340.383 C 143.953 339.702,144.325 339.050,144.629 338.933 C 144.934 338.816,145.579 337.929,146.063 336.960 C 146.546 335.992,147.085 335.200,147.261 335.200 C 147.436 335.200,147.880 334.615,148.247 333.900 C 148.614 333.185,149.294 332.202,149.757 331.715 C 150.221 331.228,150.992 330.328,151.471 329.715 C 154.915 325.305,161.671 318.200,164.551 315.958 C 165.184 315.465,166.121 314.643,166.633 314.131 C 167.145 313.619,167.830 313.200,168.155 313.200 C 168.480 313.200,168.856 312.855,168.989 312.433 C 169.123 312.012,169.751 311.486,170.385 311.265 C 171.019 311.044,171.727 310.510,171.958 310.078 C 172.190 309.646,172.830 309.179,173.381 309.040 C 173.933 308.902,174.934 308.251,175.606 307.594 C 176.278 306.937,177.150 306.400,177.544 306.400 C 177.938 306.400,178.675 305.959,179.181 305.421 C 179.686 304.882,180.663 304.323,181.350 304.179 C 182.038 304.034,183.050 303.499,183.600 302.989 C 184.150 302.480,185.320 301.938,186.200 301.785 C 187.080 301.632,188.072 301.166,188.404 300.750 C 188.789 300.268,189.950 299.829,191.604 299.540 C 193.342 299.236,194.471 298.796,195.021 298.208 C 195.667 297.516,196.472 297.276,198.800 297.081 C 200.970 296.899,202.084 296.593,202.979 295.930 C 204.064 295.127,204.866 294.993,210.163 294.729 C 214.602 294.508,216.493 294.250,217.563 293.722 C 219.601 292.715,228.409 292.694,230.250 293.692 C 231.087 294.145,233.127 294.486,236.416 294.722 C 240.760 295.033,241.413 295.176,242.043 295.953 C 242.538 296.565,243.374 296.906,244.795 297.074 C 246.151 297.235,247.295 297.681,248.206 298.405 C 251.243 300.818,254.538 300.315,254.941 297.376 C 255.084 296.338,255.200 229.003,255.200 147.744 L 255.200 0.000 254.210 0.000 L 253.219 0.000 253.218 149.500 M265.599 169.858 C 265.403 336.999,265.387 339.931,264.630 340.767 C 264.140 341.309,263.672 342.799,263.343 344.870 C 263.006 346.983,262.552 348.415,262.045 348.961 C 261.616 349.422,261.134 350.508,260.974 351.373 C 260.814 352.238,260.288 353.318,259.804 353.773 C 259.320 354.228,258.794 355.129,258.636 355.776 C 258.359 356.903,257.477 358.174,255.100 360.871 C 254.495 361.557,254.000 362.285,254.000 362.488 C 254.000 362.821,251.851 365.547,249.800 367.814 C 246.976 370.936,241.147 376.800,240.867 376.800 C 240.683 376.800,240.070 377.295,239.505 377.900 C 238.189 379.309,235.685 381.320,234.400 381.999 C 233.850 382.289,233.165 382.858,232.877 383.263 C 232.590 383.669,232.135 384.000,231.866 384.000 C 231.598 384.000,230.802 384.527,230.097 385.171 C 229.392 385.815,228.406 386.465,227.907 386.617 C 227.408 386.768,226.640 387.202,226.200 387.581 C 225.760 387.960,224.770 388.509,224.000 388.800 C 223.230 389.091,222.240 389.641,221.800 390.022 C 221.360 390.402,220.423 390.836,219.719 390.984 C 219.014 391.133,217.971 391.622,217.402 392.070 C 216.832 392.518,215.339 393.151,214.083 393.477 C 212.827 393.803,211.520 394.320,211.177 394.627 C 210.835 394.933,209.149 395.453,207.431 395.782 C 205.713 396.110,204.047 396.595,203.729 396.859 C 203.240 397.265,194.850 398.728,192.700 398.782 C 190.687 398.833,192.125 400.000,194.200 400.000 C 195.800 400.000,196.400 399.850,196.400 399.450 C 196.400 398.731,198.171 398.400,202.017 398.400 C 205.617 398.400,206.400 398.187,206.400 397.207 C 206.400 396.391,207.846 396.000,210.859 396.000 C 212.541 396.000,212.879 395.864,213.257 395.034 C 213.744 393.966,214.644 393.614,216.910 393.605 C 218.129 393.601,218.489 393.417,218.781 392.650 C 219.062 391.910,219.549 391.638,220.979 391.424 C 222.297 391.226,222.995 390.874,223.454 390.174 C 223.805 389.638,224.423 389.200,224.827 389.200 C 225.947 389.200,227.600 388.336,227.600 387.751 C 227.600 387.465,228.309 387.040,229.176 386.806 C 230.132 386.549,230.847 386.081,230.995 385.616 C 231.129 385.194,231.859 384.645,232.618 384.394 C 233.377 384.144,234.234 383.601,234.523 383.188 C 234.812 382.775,235.550 382.247,236.163 382.014 C 236.776 381.781,237.368 381.244,237.479 380.820 C 237.590 380.397,238.202 379.868,238.840 379.646 C 239.478 379.424,240.000 378.953,240.000 378.600 C 240.000 378.246,240.540 377.770,241.202 377.539 C 241.946 377.280,242.497 376.754,242.646 376.160 C 242.797 375.559,243.177 375.200,243.664 375.200 C 244.165 375.200,244.588 374.781,244.852 374.024 C 245.104 373.300,245.589 372.800,246.114 372.724 C 246.637 372.648,247.057 372.219,247.198 371.615 C 247.343 370.997,247.797 370.543,248.415 370.398 C 249.042 370.251,249.448 369.838,249.531 369.262 C 249.605 368.750,250.077 368.199,250.619 367.993 C 251.146 367.792,251.688 367.189,251.823 366.652 C 251.957 366.115,252.410 365.586,252.829 365.477 C 253.248 365.367,253.759 364.834,253.965 364.292 C 254.171 363.750,254.808 362.801,255.380 362.184 C 255.951 361.567,256.528 360.630,256.660 360.102 C 256.793 359.574,257.329 358.979,257.851 358.781 C 258.495 358.536,258.800 358.103,258.800 357.435 C 258.800 356.893,259.319 355.882,259.952 355.188 C 260.653 354.420,261.187 353.312,261.315 352.357 C 261.436 351.456,261.880 350.493,262.360 350.094 C 262.961 349.593,263.300 348.634,263.574 346.650 C 263.845 344.690,264.219 343.619,264.877 342.918 L 265.800 341.936 265.902 219.668 C 265.958 152.421,265.957 75.440,265.901 48.600 C 265.844 21.760,265.709 76.326,265.599 169.858 " stroke="none" fill="#848484" fill-rule="evenodd"></path><path id="path3" d="M255.198 149.280 C 255.036 271.314,254.904 298.855,254.479 299.280 C 254.171 299.588,253.142 299.775,251.955 299.739 L 249.952 299.677 251.276 300.348 C 252.743 301.091,254.517 300.751,255.089 299.616 C 255.385 299.030,255.724 71.262,255.502 22.800 C 255.444 10.150,255.307 67.066,255.198 149.280 M265.298 169.046 L 265.200 338.292 264.383 339.331 C 263.875 339.976,263.501 341.171,263.395 342.485 C 263.249 344.296,263.271 344.385,263.549 343.101 C 263.728 342.277,264.217 341.223,264.637 340.759 C 265.427 339.887,265.830 203.374,265.500 48.400 C 265.443 21.670,265.352 75.961,265.298 169.046 M219.257 293.204 C 218.299 293.407,217.305 293.747,217.049 293.959 C 216.794 294.171,215.868 294.425,214.992 294.522 C 214.116 294.619,214.754 294.631,216.409 294.548 C 218.064 294.465,220.042 294.217,220.806 293.998 C 222.571 293.492,225.414 293.488,227.160 293.989 C 227.905 294.202,229.884 294.463,231.557 294.567 C 233.663 294.699,234.046 294.666,232.800 294.460 C 231.810 294.297,230.568 293.926,230.040 293.636 C 228.853 292.983,221.660 292.695,219.257 293.204 M204.400 295.084 C 204.070 295.205,203.492 295.572,203.116 295.899 C 202.740 296.227,201.840 296.650,201.116 296.839 C 199.904 297.157,199.937 297.172,201.531 297.026 C 202.483 296.939,203.626 296.538,204.071 296.134 C 204.700 295.564,205.785 295.349,208.940 295.172 L 213.000 294.945 209.000 294.904 C 206.800 294.881,204.730 294.962,204.400 295.084 M237.412 295.141 C 239.446 295.328,240.540 295.649,241.366 296.300 C 241.994 296.795,242.889 297.179,243.354 297.154 C 244.127 297.111,244.133 297.090,243.429 296.911 C 243.005 296.803,242.348 296.331,241.969 295.862 C 241.373 295.126,240.820 295.001,237.939 294.946 L 234.600 294.883 237.412 295.141 M195.072 298.160 C 194.582 298.688,193.736 299.204,193.191 299.306 C 192.203 299.490,192.203 299.491,193.269 299.546 C 193.882 299.577,194.831 299.185,195.493 298.629 C 196.148 298.078,197.330 297.588,198.224 297.496 C 199.748 297.340,199.736 297.332,197.881 297.267 C 196.318 297.212,195.797 297.378,195.072 298.160 M245.522 297.595 C 246.250 297.767,247.060 298.181,247.322 298.514 C 247.585 298.847,248.250 299.250,248.800 299.409 C 249.628 299.649,249.532 299.484,248.245 298.449 C 247.198 297.608,246.283 297.213,245.445 297.241 L 244.200 297.282 245.522 297.595 M189.356 299.992 C 188.891 300.180,188.411 300.596,188.287 300.916 C 188.163 301.240,187.273 301.618,186.286 301.766 C 185.189 301.931,184.169 302.395,183.620 302.978 C 183.132 303.498,182.146 304.034,181.430 304.168 C 180.714 304.302,179.708 304.859,179.194 305.406 C 178.681 305.953,177.938 306.400,177.544 306.400 C 177.150 306.400,176.278 306.937,175.606 307.594 C 174.934 308.251,173.933 308.902,173.381 309.040 C 172.830 309.179,172.190 309.646,171.958 310.078 C 171.727 310.510,171.019 311.044,170.385 311.265 C 169.751 311.486,169.123 312.012,168.989 312.433 C 168.856 312.855,168.480 313.200,168.155 313.200 C 167.830 313.200,167.145 313.619,166.633 314.131 C 166.121 314.643,165.184 315.465,164.551 315.958 C 161.671 318.200,154.915 325.305,151.471 329.715 C 150.992 330.328,150.221 331.228,149.757 331.715 C 149.294 332.202,148.614 333.185,148.247 333.900 C 147.880 334.615,147.436 335.200,147.261 335.200 C 147.085 335.200,146.546 335.992,146.063 336.960 C 145.579 337.929,144.934 338.816,144.629 338.933 C 144.325 339.050,143.953 339.702,143.804 340.383 C 143.654 341.063,143.115 342.115,142.606 342.720 C 142.096 343.326,141.464 344.620,141.201 345.595 C 140.939 346.570,140.469 347.555,140.158 347.784 C 139.846 348.013,139.304 349.730,138.953 351.600 C 138.601 353.470,138.024 355.540,137.670 356.200 C 136.715 357.981,136.734 366.084,137.698 367.958 C 138.083 368.705,138.596 370.505,138.839 371.958 C 139.082 373.411,139.696 375.230,140.203 376.000 C 140.710 376.770,141.241 377.960,141.382 378.645 C 141.524 379.330,142.076 380.269,142.609 380.733 C 143.142 381.197,143.691 382.022,143.827 382.567 C 143.964 383.112,144.509 383.842,145.038 384.188 C 145.567 384.535,146.000 385.013,146.000 385.251 C 146.000 385.814,151.386 391.200,151.949 391.200 C 152.187 391.200,152.676 391.650,153.037 392.200 C 153.397 392.750,153.914 393.200,154.186 393.200 C 154.457 393.200,155.472 393.737,156.440 394.393 C 157.408 395.049,158.488 395.589,158.840 395.593 C 159.193 395.597,160.305 396.038,161.313 396.574 C 162.320 397.110,164.687 397.854,166.572 398.229 C 168.867 398.684,170.000 399.090,170.000 399.455 C 170.000 399.859,170.672 400.000,172.600 400.000 C 177.221 400.000,175.900 399.064,170.178 398.283 C 167.417 397.906,164.603 397.312,163.927 396.962 C 163.251 396.613,161.776 396.055,160.649 395.724 C 159.522 395.393,158.330 394.891,158.000 394.609 C 157.670 394.327,156.770 393.780,156.000 393.392 C 152.934 391.849,144.000 383.248,144.000 381.839 C 144.000 381.548,143.460 380.631,142.800 379.800 C 142.140 378.969,141.600 378.016,141.600 377.680 C 141.600 377.345,141.161 376.321,140.625 375.406 C 140.040 374.409,139.393 372.265,139.010 370.059 C 138.659 368.034,138.198 365.920,137.986 365.362 C 137.484 364.043,137.493 360.967,138.003 359.197 C 138.225 358.429,138.682 356.093,139.019 354.006 C 139.356 351.920,139.977 349.627,140.399 348.912 C 140.821 348.197,141.371 346.849,141.622 345.917 C 141.873 344.985,142.511 343.708,143.039 343.080 C 143.568 342.452,144.000 341.696,144.000 341.400 C 144.000 341.104,144.450 340.327,145.000 339.673 C 145.550 339.019,146.000 338.303,146.000 338.080 C 146.000 337.858,146.630 336.922,147.400 336.000 C 148.170 335.078,148.800 334.188,148.800 334.021 C 148.800 333.855,149.295 333.155,149.900 332.466 C 150.505 331.777,151.400 330.716,151.889 330.107 C 155.253 325.916,157.008 324.003,161.016 320.154 C 163.510 317.760,166.111 315.350,166.796 314.800 C 167.481 314.250,168.477 313.408,169.010 312.929 C 169.543 312.450,170.523 311.736,171.189 311.343 C 171.855 310.949,172.400 310.489,172.400 310.320 C 172.400 310.152,173.300 309.557,174.400 309.000 C 175.500 308.443,176.400 307.824,176.400 307.624 C 176.400 307.425,177.008 307.061,177.752 306.816 C 178.495 306.571,179.414 306.027,179.793 305.608 C 180.173 305.188,181.009 304.730,181.651 304.589 C 182.294 304.448,183.327 303.905,183.949 303.382 C 184.570 302.859,185.838 302.261,186.768 302.052 C 187.697 301.843,188.785 301.376,189.186 301.013 C 189.586 300.650,190.428 300.200,191.057 300.011 C 192.154 299.683,192.160 299.668,191.200 299.660 C 190.650 299.655,189.820 299.804,189.356 299.992 M262.832 345.646 C 262.814 346.221,262.464 347.121,262.054 347.646 C 261.644 348.171,261.015 349.615,260.656 350.857 C 260.297 352.098,259.750 353.210,259.442 353.329 C 259.133 353.447,258.657 354.220,258.385 355.046 C 257.074 359.019,245.677 372.186,238.200 378.365 C 237.100 379.274,235.940 380.239,235.622 380.509 C 235.304 380.779,234.650 381.270,234.170 381.600 C 233.689 381.930,232.250 382.920,230.971 383.800 C 228.109 385.770,225.562 387.288,223.200 388.431 C 222.210 388.910,221.169 389.486,220.887 389.711 C 220.066 390.365,214.368 392.821,212.382 393.376 C 211.381 393.656,210.192 394.083,209.738 394.326 C 207.114 395.730,195.693 398.085,188.900 398.622 C 184.252 398.990,184.179 400.000,188.800 400.000 C 191.378 400.000,192.000 399.883,192.000 399.400 C 192.000 399.070,192.315 398.792,192.700 398.782 C 194.850 398.728,203.240 397.265,203.729 396.859 C 204.047 396.595,205.713 396.110,207.431 395.782 C 209.149 395.453,210.835 394.933,211.177 394.627 C 211.520 394.320,212.827 393.803,214.083 393.477 C 215.339 393.151,216.832 392.518,217.402 392.070 C 217.971 391.622,219.014 391.133,219.719 390.984 C 220.423 390.836,221.360 390.402,221.800 390.022 C 222.240 389.641,223.230 389.091,224.000 388.800 C 224.770 388.509,225.760 387.960,226.200 387.581 C 226.640 387.202,227.408 386.768,227.907 386.617 C 228.406 386.465,229.392 385.815,230.097 385.171 C 230.802 384.527,231.598 384.000,231.866 384.000 C 232.135 384.000,232.590 383.669,232.877 383.263 C 233.165 382.858,233.850 382.289,234.400 381.999 C 235.685 381.320,238.189 379.309,239.505 377.900 C 240.070 377.295,240.683 376.800,240.867 376.800 C 241.147 376.800,246.976 370.936,249.800 367.814 C 251.851 365.547,254.000 362.821,254.000 362.488 C 254.000 362.285,254.495 361.557,255.100 360.871 C 257.477 358.174,258.359 356.903,258.636 355.776 C 258.794 355.129,259.326 354.223,259.817 353.761 C 260.307 353.300,260.833 352.191,260.984 351.297 C 261.135 350.403,261.602 349.361,262.021 348.981 C 262.820 348.258,263.430 346.016,263.072 345.121 C 262.957 344.835,262.849 345.071,262.832 345.646 " stroke="none" fill="#646464" fill-rule="evenodd"></path><path id="path4" d="M255.504 149.437 C 255.447 231.697,255.260 299.277,255.089 299.616 C 254.715 300.358,252.488 301.266,252.197 300.795 C 252.083 300.611,251.048 300.153,249.895 299.777 C 248.743 299.400,247.499 298.779,247.131 298.396 C 246.763 298.013,245.593 297.574,244.531 297.421 C 243.469 297.267,241.970 296.725,241.200 296.216 C 240.069 295.468,239.032 295.241,235.800 295.034 C 233.600 294.892,230.630 294.562,229.200 294.299 C 225.865 293.687,222.086 293.691,218.800 294.311 C 217.370 294.581,213.770 294.909,210.800 295.041 C 206.257 295.242,205.216 295.409,204.241 296.096 C 203.515 296.606,201.865 297.077,199.827 297.356 C 197.626 297.656,196.224 298.074,195.500 298.647 C 194.910 299.112,193.541 299.611,192.458 299.755 C 191.374 299.898,190.007 300.394,189.420 300.856 C 188.833 301.318,187.615 301.861,186.715 302.064 C 185.815 302.266,184.570 302.859,183.949 303.382 C 183.327 303.905,182.294 304.448,181.651 304.589 C 181.009 304.730,180.173 305.188,179.793 305.608 C 179.414 306.027,178.495 306.571,177.752 306.816 C 177.008 307.061,176.400 307.425,176.400 307.624 C 176.400 307.824,175.500 308.443,174.400 309.000 C 173.300 309.557,172.400 310.152,172.400 310.320 C 172.400 310.489,171.855 310.949,171.189 311.343 C 170.523 311.736,169.543 312.450,169.010 312.929 C 168.477 313.408,167.481 314.250,166.796 314.800 C 166.111 315.350,163.510 317.760,161.016 320.154 C 157.008 324.003,155.253 325.916,151.889 330.107 C 151.400 330.716,150.505 331.777,149.900 332.466 C 149.295 333.155,148.800 333.855,148.800 334.021 C 148.800 334.188,148.170 335.078,147.400 336.000 C 146.630 336.922,146.000 337.858,146.000 338.080 C 146.000 338.303,145.550 339.019,145.000 339.673 C 144.450 340.327,144.000 341.104,144.000 341.400 C 144.000 341.696,143.568 342.452,143.039 343.080 C 142.511 343.708,141.873 344.985,141.622 345.917 C 141.371 346.849,140.821 348.197,140.399 348.912 C 139.977 349.627,139.356 351.920,139.019 354.006 C 138.682 356.093,138.225 358.429,138.003 359.197 C 137.493 360.967,137.484 364.043,137.986 365.362 C 138.198 365.920,138.659 368.034,139.010 370.059 C 139.393 372.265,140.040 374.409,140.625 375.406 C 141.161 376.321,141.600 377.345,141.600 377.680 C 141.600 378.016,142.140 378.969,142.800 379.800 C 143.460 380.631,144.000 381.548,144.000 381.839 C 144.000 383.248,152.934 391.849,156.000 393.392 C 156.770 393.780,157.670 394.327,158.000 394.609 C 158.330 394.891,159.522 395.393,160.649 395.724 C 161.776 396.055,163.251 396.613,163.927 396.962 C 164.603 397.312,167.417 397.906,170.178 398.283 C 173.657 398.758,175.200 399.127,175.200 399.484 C 175.200 399.879,176.421 400.000,180.400 400.000 C 184.583 400.000,185.600 399.891,185.600 399.442 C 185.600 399.030,186.467 398.815,188.900 398.622 C 195.693 398.085,207.114 395.730,209.738 394.326 C 210.192 394.083,211.381 393.656,212.382 393.376 C 214.368 392.821,220.066 390.365,220.887 389.711 C 221.169 389.486,222.210 388.910,223.200 388.431 C 225.562 387.288,228.109 385.770,230.971 383.800 C 232.250 382.920,233.689 381.930,234.170 381.600 C 234.650 381.270,235.304 380.779,235.622 380.509 C 235.940 380.239,237.100 379.274,238.200 378.365 C 245.677 372.186,257.074 359.019,258.385 355.046 C 258.657 354.220,259.133 353.447,259.442 353.329 C 259.750 353.210,260.297 352.102,260.656 350.867 C 261.015 349.631,261.635 348.166,262.034 347.610 C 262.447 347.035,262.940 345.248,263.181 343.461 C 263.452 341.441,263.887 339.961,264.401 339.307 C 265.197 338.296,265.200 337.666,265.102 169.046 L 265.003 -0.200 264.802 168.000 L 264.600 336.200 263.670 337.683 C 262.997 338.757,262.677 340.007,262.510 342.216 C 262.343 344.427,262.036 345.624,261.395 346.569 C 260.908 347.286,260.291 348.787,260.023 349.903 C 259.755 351.020,259.190 352.247,258.768 352.629 C 258.346 353.011,258.000 353.546,258.000 353.817 C 258.000 354.088,257.370 355.226,256.600 356.345 C 255.830 357.465,255.200 358.533,255.200 358.718 C 255.200 358.904,254.795 359.434,254.300 359.897 C 253.805 360.359,252.770 361.576,252.000 362.601 C 247.593 368.468,238.020 377.789,232.800 381.298 C 232.250 381.668,230.630 382.782,229.200 383.774 C 227.770 384.766,226.389 385.583,226.131 385.589 C 225.873 385.595,225.121 386.055,224.461 386.610 C 223.800 387.166,222.661 387.825,221.930 388.075 C 221.198 388.326,219.973 388.951,219.207 389.465 C 218.441 389.979,217.523 390.400,217.167 390.400 C 216.811 390.400,215.727 390.819,214.760 391.331 C 213.792 391.843,212.121 392.482,211.046 392.750 C 209.972 393.019,208.432 393.575,207.626 393.987 C 206.819 394.399,204.771 394.928,203.074 395.164 C 201.378 395.400,199.364 395.855,198.598 396.175 C 193.834 398.165,168.439 398.228,165.430 396.257 C 164.953 395.944,163.475 395.409,162.147 395.069 C 159.778 394.462,159.047 394.084,154.553 391.146 C 152.297 389.671,147.200 385.024,147.200 384.442 C 147.200 384.267,146.821 383.781,146.357 383.362 C 145.893 382.943,145.097 381.779,144.588 380.775 C 144.079 379.771,143.397 378.730,143.073 378.461 C 142.749 378.192,142.370 377.366,142.231 376.626 C 142.093 375.886,141.597 374.795,141.129 374.201 C 138.877 371.338,138.767 354.014,140.976 350.200 C 141.486 349.320,142.034 347.970,142.195 347.200 C 142.355 346.430,143.007 345.004,143.643 344.031 C 144.279 343.059,144.800 342.052,144.800 341.794 C 144.800 341.536,145.250 340.801,145.800 340.162 C 146.349 339.523,146.799 338.797,146.800 338.549 C 146.800 338.301,147.088 337.859,147.441 337.566 C 147.979 337.120,149.767 334.621,151.400 332.034 C 151.620 331.685,152.250 330.921,152.800 330.335 C 153.350 329.749,154.610 328.334,155.600 327.190 C 160.091 322.001,167.854 314.752,172.000 311.875 C 177.879 307.796,179.731 306.650,182.800 305.196 C 183.790 304.727,184.883 304.087,185.229 303.774 C 185.575 303.461,186.691 302.954,187.708 302.648 C 188.726 302.341,190.042 301.710,190.633 301.245 C 191.290 300.728,192.287 300.400,193.198 300.400 C 194.151 300.400,195.249 300.018,196.244 299.341 C 197.420 298.542,198.552 298.207,200.876 297.971 C 203.108 297.745,204.293 297.407,205.191 296.743 C 207.787 294.824,237.083 294.782,239.899 296.693 C 240.685 297.226,242.299 297.821,243.486 298.014 C 244.823 298.232,246.102 298.752,246.852 299.383 C 247.517 299.942,248.484 300.400,249.000 300.400 C 249.516 300.400,250.483 300.858,251.147 301.417 C 252.635 302.669,254.705 302.363,255.473 300.777 C 255.988 299.714,256.382 0.649,255.869 0.136 C 255.725 -0.008,255.561 67.177,255.504 149.437 " stroke="none" fill="#464646" fill-rule="evenodd"></path></g></svg>